<svg id="Capa_1" data-name="Capa 1" xmlns="http://www.w3.org/2000/svg" xmlns:xlink="http://www.w3.org/1999/xlink" viewBox="0 0 166 245"><defs><style>.cls-1{fill:#c6099a;}.cls-2,.cls-6,.cls-8{fill:#fff;}.cls-3{fill:#e9ecec;}.cls-4{fill:url(#Degradado_sin_nombre_169);}.cls-5{fill:url(#Degradado_sin_nombre_169-2);}.cls-6{font-size:25.27px;}.cls-6,.cls-7,.cls-8{font-family:Blinker-Bold, Blinker;font-weight:700;}.cls-7{font-size:27px;fill:#010628;}.cls-8{font-size:42.15px;}</style><linearGradient id="Degradado_sin_nombre_169" x1="15.1" y1="22.55" x2="150.9" y2="22.55" gradientUnits="userSpaceOnUse"><stop offset="0" stop-color="#f93df9"/><stop offset="0.97" stop-color="#ff14bf"/><stop offset="1" stop-color="#ff13bd"/></linearGradient><linearGradient id="Degradado_sin_nombre_169-2" x1="3414.71" y1="5022.01" x2="3414.71" y2="4980.54" gradientTransform="translate(-3331.71 -4778.06)" xlink:href="#Degradado_sin_nombre_169"/></defs><polygon class="cls-1" points="0.06 202.15 15.1 192.63 15.1 208.64 0.06 202.15"/><polygon class="cls-1" points="165.94 202.15 150.9 192.63 150.9 208.64 165.94 202.15"/><path class="cls-2" d="M15.1,30.77H150.9a0,0,0,0,1,0,0V199.72a8.92,8.92,0,0,1-8.92,8.92H26.25A11.15,11.15,0,0,1,15.1,197.49V30.77a0,0,0,0,1,0,0Z"/><path class="cls-3" d="M139.19,188.2h0a8.17,8.17,0,0,1-8.17,8.18H35a8.17,8.17,0,0,1-8.17-8.18h0a2.36,2.36,0,0,0-2.36-2.35H15.1v16.66a6.14,6.14,0,0,0,6.13,6.13H144.77a6.14,6.14,0,0,0,6.13-6.13V185.85h-9.35A2.36,2.36,0,0,0,139.19,188.2Z"/><path class="cls-4" d="M139.19,42.75h0A8.17,8.17,0,0,0,131,34.58H35a8.17,8.17,0,0,0-8.17,8.17h0a2.36,2.36,0,0,1-2.36,2.35H15.1v-39A6.14,6.14,0,0,1,21.23,0H144.77a6.14,6.14,0,0,1,6.13,6.13v39h-9.35A2.36,2.36,0,0,1,139.19,42.75Z"/><path class="cls-5" d="M7.32,202.15H158.68a7.26,7.26,0,0,1,7.26,7.26V244a0,0,0,0,1,0,0H.06a0,0,0,0,1,0,0V209.4A7.26,7.26,0,0,1,7.32,202.15Z" transform="translate(166 446.16) rotate(180)"/><text class="cls-6" transform="translate(63.58 27)">10K</text><text class="cls-7" transform="translate(28.31 124.82)">AVATARS</text><text class="cls-8" transform="translate(19.85 231.97) scale(0.58)">COLLECTION</text></svg>