<?xml version="1.0" encoding="utf-8"?>
<!-- Generator: Adobe Illustrator 25.4.1, SVG Export Plug-In . SVG Version: 6.00 Build 0)  -->
<svg version="1.1" id="Layer_1" xmlns="http://www.w3.org/2000/svg" xmlns:xlink="http://www.w3.org/1999/xlink" x="0px" y="0px"
	 viewBox="0 0 104.6 153.8" style="enable-background:new 0 0 104.6 153.8;" xml:space="preserve">
<style type="text/css">
	.st0{fill:#C6099A;}
	.st1{fill:#FFFFFF;}
	.st2{fill:#E9ECEC;}
	.st3{fill:url(#SVGID_1_);}
	.st4{fill:url(#SVGID_00000101069834142748546060000009065862567789319301_);}
	.st5{fill:#010628;}
</style>
<g>
	<polygon class="st0" points="0,127.4 9.5,121.4 9.5,131.5 	"/>
	<polygon class="st0" points="104.6,127.4 95.1,121.4 95.1,131.5 	"/>
	<path class="st1" d="M89.5,131.5H16.5c-3.9,0-7-3.1-7-7V19.4h85.6v106.5C95.1,129,92.6,131.5,89.5,131.5z"/>
	<path class="st2" d="M87.7,118.6L87.7,118.6c0,2.8-2.3,5.2-5.2,5.2H22c-2.8,0-5.2-2.3-5.2-5.2l0,0c0-0.8-0.7-1.5-1.5-1.5H9.5v10.5
		c0,2.1,1.7,3.9,3.9,3.9h77.9c2.1,0,3.9-1.7,3.9-3.9v-10.5h-5.9C88.4,117.1,87.7,117.8,87.7,118.6z"/>
	<linearGradient id="SVGID_1_" gradientUnits="userSpaceOnUse" x1="9.4798" y1="14.2148" x2="95.0731" y2="14.2148">
		<stop  offset="0" style="stop-color:#F93DF9"/>
		<stop  offset="0.9674" style="stop-color:#FF14BF"/>
		<stop  offset="1" style="stop-color:#FF13BD"/>
	</linearGradient>
	<path class="st3" d="M87.7,26.9L87.7,26.9c0-2.8-2.3-5.2-5.2-5.2H22c-2.8,0-5.2,2.3-5.2,5.2l0,0c0,0.8-0.7,1.5-1.5,1.5H9.5V3.9
		c0-2.1,1.7-3.9,3.9-3.9h77.9c2.1,0,3.9,1.7,3.9,3.9v24.6h-5.9C88.4,28.4,87.7,27.8,87.7,26.9z"/>
	
		<linearGradient id="SVGID_00000140719037155607842920000009302786918184027815_" gradientUnits="userSpaceOnUse" x1="-1017.8519" y1="11134.3818" x2="-1017.8519" y2="11108.2383" gradientTransform="matrix(-1 0 0 -1 -965.5755 11261.833)">
		<stop  offset="0" style="stop-color:#F93DF9"/>
		<stop  offset="0.9674" style="stop-color:#FF14BF"/>
		<stop  offset="1" style="stop-color:#FF13BD"/>
	</linearGradient>
	<path style="fill:url(#SVGID_00000140719037155607842920000009302786918184027815_);" d="M0,127.4h104.6v21.8c0,2.5-2,4.6-4.6,4.6
		H4.6c-2.5,0-4.6-2-4.6-4.6V127.4z"/>
	<g>
		<path class="st1" d="M45,17h-2.5V9.2l-2.4,0.3V7.4L45,6.9V17z"/>
		<path class="st1" d="M54.4,12c0,1.9-0.3,3.2-0.9,4c-0.6,0.8-1.6,1.2-3.1,1.2c-0.9,0-1.7-0.1-2.2-0.3s-0.9-0.6-1.2-1.1
			c-0.2-0.4-0.4-0.9-0.5-1.5c-0.1-0.6-0.2-1.4-0.2-2.3c0-1.9,0.3-3.2,0.9-4c0.6-0.8,1.6-1.2,3.1-1.2c0.9,0,1.7,0.1,2.2,0.3
			c0.5,0.2,0.9,0.6,1.2,1.1c0.2,0.4,0.4,0.9,0.5,1.5C54.4,10.3,54.4,11.1,54.4,12z M51.9,12c0-1.2-0.1-2-0.3-2.4
			c-0.2-0.4-0.6-0.5-1.2-0.5c-0.6,0-1.1,0.2-1.2,0.6C49,10,48.9,10.8,48.9,12c0,1.2,0.1,1.9,0.3,2.3c0.2,0.4,0.6,0.5,1.2,0.5
			c0.6,0,1-0.2,1.2-0.5C51.8,14,51.9,13.2,51.9,12z"/>
		<path class="st1" d="M60.9,11.9l3.7,5.1h-3.1l-2.7-4.1h-0.7V17h-2.5V7h2.5V11h0.7L61.6,7h3L60.9,11.9z"/>
	</g>
	<g>
		<g>
			<path class="st5" d="M20.5,78.7h-2.8L21.7,68h2.7l3.8,10.7h-2.8L25,76.9h-3.9L20.5,78.7z M23,70.6c-0.1,0.3-0.2,0.7-0.3,1
				c-0.1,0.4-0.3,0.9-0.5,1.7l-0.4,1.4h2.6l-0.4-1.4c-0.1-0.4-0.3-0.9-0.4-1.4C23.3,71.5,23.1,71.1,23,70.6z"/>
			<path class="st5" d="M31.9,78.7L28.2,68h2.9l1.6,5.3c0.1,0.4,0.2,0.8,0.4,1.4c0.1,0.6,0.3,1.2,0.4,1.7c0.2-1,0.4-1.8,0.5-2.2
				c0.1-0.4,0.2-0.7,0.2-1l1.6-5.3h2.9l-3.7,10.7H31.9z"/>
			<path class="st5" d="M41.5,78.7h-2.8L42.6,68h2.7l3.8,10.7h-2.8l-0.6-1.8H42L41.5,78.7z M43.9,70.6c-0.1,0.3-0.2,0.7-0.3,1
				c-0.1,0.4-0.3,0.9-0.5,1.7l-0.4,1.4h2.6l-0.4-1.4c-0.1-0.4-0.3-0.9-0.4-1.4C44.2,71.5,44.1,71.1,43.9,70.6z"/>
			<path class="st5" d="M57.9,68v2.4H55v8.3h-2.6v-8.3h-2.9V68H57.9z"/>
			<path class="st5" d="M60.8,78.7H58L62,68h2.7l3.8,10.7h-2.8l-0.6-1.8h-3.9L60.8,78.7z M63.3,70.6c-0.1,0.3-0.2,0.7-0.3,1
				c-0.1,0.4-0.3,0.9-0.5,1.7L62,74.8h2.6l-0.4-1.4C64,73,63.8,72.5,63.7,72C63.5,71.5,63.4,71.1,63.3,70.6z"/>
			<path class="st5" d="M72,75.2v3.4h-2.6V68h3.9c1.6,0,2.8,0.3,3.5,0.8c0.7,0.6,1,1.5,1,2.8c0,0.9-0.2,1.6-0.6,2.1
				c-0.4,0.6-0.9,1-1.7,1.2l2.6,3.7H75l-2.2-3.4H72z M75.1,71.6c0-0.5-0.1-0.8-0.4-1s-0.8-0.3-1.5-0.3H72v2.7h1.3
				c0.7,0,1.2-0.1,1.5-0.3C75,72.6,75.1,72.2,75.1,71.6z"/>
			<path class="st5" d="M83.2,74.7l-2.2-0.5c-0.9-0.2-1.5-0.5-1.8-0.9c-0.3-0.4-0.5-1-0.5-1.8c0-1.2,0.3-2.1,1-2.7
				c0.7-0.6,1.7-0.9,3-0.9c0.6,0,1.1,0,1.5,0.1c0.4,0,0.9,0.1,1.2,0.2v2.4c-0.9-0.1-1.5-0.2-1.8-0.3s-0.7,0-1,0
				c-0.5,0-0.8,0.1-1,0.2s-0.3,0.4-0.3,0.8c0,0.2,0,0.3,0.1,0.4c0.1,0.1,0.2,0.2,0.4,0.2l2,0.5c0.6,0.1,1,0.3,1.3,0.4
				c0.3,0.1,0.5,0.3,0.6,0.5c0.2,0.2,0.3,0.5,0.4,0.8c0.1,0.3,0.1,0.8,0.1,1.2c0,1.2-0.3,2.1-1,2.7c-0.7,0.6-1.7,0.8-3.1,0.8
				c-0.7,0-1.4,0-2-0.1c-0.6-0.1-1.1-0.2-1.5-0.3v-2.5c0.5,0.1,1,0.3,1.6,0.3s1.2,0.1,1.9,0.1c0.5,0,0.8-0.1,1-0.2s0.3-0.4,0.3-0.7
				c0-0.2,0-0.4-0.1-0.5C83.5,74.8,83.4,74.7,83.2,74.7z"/>
		</g>
	</g>
	<g>
		<g>
			<path class="st1" d="M17.4,144.1c0.4,0,0.9,0,1.3-0.1s0.9-0.2,1.3-0.3v2.1c-0.6,0.2-1.1,0.4-1.5,0.5c-0.5,0.1-0.9,0.1-1.4,0.1
				c-0.9,0-1.6-0.1-2.2-0.3c-0.5-0.2-1-0.5-1.3-1c-0.3-0.4-0.5-0.9-0.6-1.5c-0.1-0.6-0.2-1.3-0.2-2.2c0-1.7,0.4-3,1.1-3.8
				c0.7-0.8,1.9-1.2,3.6-1.2c0.5,0,0.9,0,1.3,0c0.4,0,0.7,0.1,1,0.1v2.1c-0.3,0-0.7,0-1.1,0c-0.4,0-0.8,0-1.2,0
				c-0.6,0-1,0.1-1.3,0.2s-0.5,0.3-0.6,0.6c-0.1,0.2-0.2,0.5-0.3,0.8s-0.1,0.8-0.1,1.3c0,0.5,0,0.9,0.1,1.2c0,0.3,0.1,0.6,0.2,0.8
				c0.1,0.3,0.3,0.5,0.6,0.6C16.5,144.1,16.9,144.1,17.4,144.1z"/>
			<path class="st1" d="M29.9,141.3c0,1.8-0.4,3-1.1,3.8s-1.9,1.2-3.5,1.2c-1.7,0-2.9-0.4-3.5-1.1c-0.7-0.7-1-2-1-3.9
				c0-1.8,0.4-3,1.1-3.8c0.7-0.8,1.9-1.2,3.5-1.2c1.7,0,2.9,0.4,3.5,1.1C29.6,138.2,29.9,139.5,29.9,141.3z M23.5,143.4
				c0.1,0.3,0.3,0.4,0.6,0.5c0.3,0.1,0.7,0.2,1.2,0.2c0.6,0,1-0.1,1.2-0.2c0.3-0.1,0.5-0.3,0.6-0.5c0.1-0.2,0.2-0.5,0.2-0.8
				c0-0.3,0.1-0.8,0.1-1.3c0-0.5,0-1-0.1-1.3c0-0.3-0.1-0.6-0.2-0.8c-0.1-0.3-0.3-0.5-0.6-0.6c-0.3-0.1-0.7-0.2-1.3-0.2
				c-0.6,0-1,0.1-1.3,0.2s-0.5,0.3-0.6,0.6c-0.1,0.2-0.2,0.5-0.2,0.8c0,0.3-0.1,0.8-0.1,1.3c0,0.5,0,0.9,0.1,1.3
				C23.3,142.9,23.4,143.2,23.5,143.4z"/>
			<path class="st1" d="M37.3,144v2.2h-6.2v-9.7h2.4v7.5H37.3z"/>
			<path class="st1" d="M44.4,144v2.2h-6.2v-9.7h2.4v7.5H44.4z"/>
			<path class="st1" d="M52,144v2.2h-6.7v-9.7h6.6v2.2h-4.2v1.6h3.6v2h-3.6v1.7H52z"/>
			<path class="st1" d="M57.4,144.1c0.4,0,0.9,0,1.3-0.1s0.9-0.2,1.3-0.3v2.1c-0.6,0.2-1.1,0.4-1.5,0.5c-0.5,0.1-0.9,0.1-1.4,0.1
				c-0.9,0-1.6-0.1-2.2-0.3c-0.5-0.2-1-0.5-1.3-1c-0.3-0.4-0.5-0.9-0.6-1.5c-0.1-0.6-0.2-1.3-0.2-2.2c0-1.7,0.4-3,1.1-3.8
				c0.7-0.8,1.9-1.2,3.6-1.2c0.5,0,0.9,0,1.3,0c0.4,0,0.7,0.1,1,0.1v2.1c-0.3,0-0.7,0-1.1,0c-0.4,0-0.8,0-1.2,0
				c-0.6,0-1,0.1-1.3,0.2s-0.5,0.3-0.6,0.6c-0.1,0.2-0.2,0.5-0.3,0.8s-0.1,0.8-0.1,1.3c0,0.5,0,0.9,0.1,1.2c0,0.3,0.1,0.6,0.2,0.8
				c0.1,0.3,0.3,0.5,0.6,0.6C56.5,144.1,56.8,144.1,57.4,144.1z"/>
			<path class="st1" d="M68.2,136.5v2.2h-2.6v7.5h-2.4v-7.5h-2.6v-2.2H68.2z"/>
			<path class="st1" d="M71.5,136.5v9.7h-2.4v-9.7H71.5z"/>
			<path class="st1" d="M81.8,141.3c0,1.8-0.4,3-1.1,3.8s-1.9,1.2-3.5,1.2c-1.7,0-2.9-0.4-3.5-1.1c-0.7-0.7-1-2-1-3.9
				c0-1.8,0.4-3,1.1-3.8c0.7-0.8,1.9-1.2,3.5-1.2c1.7,0,2.9,0.4,3.5,1.1C81.5,138.2,81.8,139.5,81.8,141.3z M75.4,143.4
				c0.1,0.3,0.3,0.4,0.6,0.5c0.3,0.1,0.7,0.2,1.2,0.2c0.6,0,1-0.1,1.2-0.2c0.3-0.1,0.5-0.3,0.6-0.5c0.1-0.2,0.2-0.5,0.2-0.8
				c0-0.3,0.1-0.8,0.1-1.3c0-0.5,0-1-0.1-1.3c0-0.3-0.1-0.6-0.2-0.8c-0.1-0.3-0.3-0.5-0.6-0.6c-0.3-0.1-0.7-0.2-1.3-0.2
				c-0.6,0-1,0.1-1.3,0.2s-0.5,0.3-0.6,0.6c-0.1,0.2-0.2,0.5-0.2,0.8c0,0.3-0.1,0.8-0.1,1.3c0,0.5,0,0.9,0.1,1.3
				C75.2,142.9,75.3,143.2,75.4,143.4z"/>
			<path class="st1" d="M91.3,136.5v9.7H89l-3.8-5.6v5.6H83v-9.7h2.3l3.9,5.8v-5.8H91.3z"/>
		</g>
	</g>
</g>
<g>
</g>
<g>
</g>
<g>
</g>
<g>
</g>
<g>
</g>
<g>
</g>
<g>
</g>
<g>
</g>
<g>
</g>
<g>
</g>
<g>
</g>
<g>
</g>
<g>
</g>
<g>
</g>
<g>
</g>
</svg>
