<?xml version="1.0" encoding="utf-8"?>
<!-- Generator: Adobe Illustrator 25.4.1, SVG Export Plug-In . SVG Version: 6.00 Build 0)  -->
<svg version="1.1" id="Layer_1" xmlns="http://www.w3.org/2000/svg" xmlns:xlink="http://www.w3.org/1999/xlink" x="0px" y="0px"
	 viewBox="0 0 104.6 153.8" style="enable-background:new 0 0 104.6 153.8;" xml:space="preserve">
<style type="text/css">
	.st0{fill:#C6099A;}
	.st1{fill:#FFFFFF;}
	.st2{fill:#E9ECEC;}
	.st3{fill:url(#SVGID_1_);}
	.st4{fill:url(#SVGID_00000183215579394618711270000010500083677631457161_);}
	.st5{fill:#010628;}
	.st6{fill:url(#SVGID_00000106104833476165034350000003770034252708281003_);}
	.st7{fill:url(#SVGID_00000162329604104393946890000002391684433953077415_);}
	.st8{fill:url(#SVGID_00000097491756253682059510000006756638530270281351_);}
	.st9{fill:url(#SVGID_00000173119822918925513190000010529217073519825324_);}
	.st10{fill:url(#SVGID_00000116204047335205866280000011836306575015375239_);}
	.st11{fill:url(#SVGID_00000010311202352266184450000016927208549102618034_);}
</style>
<g>
	<polygon class="st0" points="-701.1,-624.6 -691.6,-630.6 -691.6,-620.5 	"/>
	<polygon class="st0" points="-596.5,-624.6 -606,-630.6 -606,-620.5 	"/>
	<path class="st1" d="M-611.6-620.5h-72.9c-3.9,0-7-3.1-7-7v-105.1h85.6v106.5C-606-623-608.5-620.5-611.6-620.5z"/>
	<path class="st2" d="M-613.4-633.4L-613.4-633.4c0,2.8-2.3,5.2-5.2,5.2h-60.5c-2.8,0-5.2-2.3-5.2-5.2l0,0c0-0.8-0.7-1.5-1.5-1.5
		h-5.9v10.5c0,2.1,1.7,3.9,3.9,3.9h77.9c2.1,0,3.9-1.7,3.9-3.9v-10.5h-5.9C-612.7-634.9-613.4-634.2-613.4-633.4z"/>
	<linearGradient id="SVGID_1_" gradientUnits="userSpaceOnUse" x1="-691.5812" y1="-737.7852" x2="-605.9879" y2="-737.7852">
		<stop  offset="0" style="stop-color:#F93DF9"/>
		<stop  offset="0.9674" style="stop-color:#FF14BF"/>
		<stop  offset="1" style="stop-color:#FF13BD"/>
	</linearGradient>
	<path class="st3" d="M-613.4-725.1L-613.4-725.1c0-2.8-2.3-5.2-5.2-5.2h-60.5c-2.8,0-5.2,2.3-5.2,5.2l0,0c0,0.8-0.7,1.5-1.5,1.5
		h-5.9v-24.6c0-2.1,1.7-3.9,3.9-3.9h77.9c2.1,0,3.9,1.7,3.9,3.9v24.6h-5.9C-612.7-723.6-613.4-724.2-613.4-725.1z"/>
	
		<linearGradient id="SVGID_00000116196502167186940270000016334518820485225605_" gradientUnits="userSpaceOnUse" x1="-316.791" y1="11886.3818" x2="-316.791" y2="11860.2383" gradientTransform="matrix(-1 0 0 -1 -965.5755 11261.833)">
		<stop  offset="0" style="stop-color:#F93DF9"/>
		<stop  offset="0.9674" style="stop-color:#FF14BF"/>
		<stop  offset="1" style="stop-color:#FF13BD"/>
	</linearGradient>
	<path style="fill:url(#SVGID_00000116196502167186940270000016334518820485225605_);" d="M-701.1-624.6h104.6v21.8
		c0,2.5-2,4.6-4.6,4.6h-95.4c-2.5,0-4.6-2-4.6-4.6V-624.6z"/>
	<g>
		<path class="st1" d="M-667.7-739.2v-5.8h2.5v5.8c0,1.5-0.4,2.5-1.1,3.3s-1.8,1.1-3.2,1.1c-1.5,0-2.6-0.3-3.3-1
			c-0.7-0.7-1-1.8-1-3.3v-5.8h2.5v5.8c0,0.8,0.1,1.4,0.4,1.6s0.7,0.4,1.5,0.4c0.7,0,1.2-0.1,1.4-0.4S-667.7-738.4-667.7-739.2z"/>
		<path class="st1" d="M-656.4-745v2.2h-2.7v7.8h-2.5v-7.8h-2.7v-2.2H-656.4z"/>
		<path class="st1" d="M-653-745v10h-2.5v-10H-653z"/>
		<path class="st1" d="M-645.1-737.3v2.3h-6.4v-10h2.5v7.7H-645.1z"/>
		<path class="st1" d="M-641.7-745v10h-2.5v-10H-641.7z"/>
		<path class="st1" d="M-632.8-745v2.2h-2.7v7.8h-2.5v-7.8h-2.7v-2.2H-632.8z"/>
		<path class="st1" d="M-625.7-745h2.5l-3.5,6.4v3.6h-2.5v-3.6l-3.6-6.4h2.8l2,4.2L-625.7-745z"/>
	</g>
	<g>
		<path class="st5" d="M-668.8-683.6l-2.2-0.5c-0.9-0.2-1.4-0.5-1.8-0.9s-0.5-1-0.5-1.8c0-1.2,0.3-2.1,1-2.7c0.7-0.6,1.7-0.9,3-0.9
			c0.6,0,1.1,0,1.5,0.1c0.4,0,0.9,0.1,1.2,0.2v2.4c-0.9-0.1-1.5-0.2-1.8-0.3c-0.3,0-0.7,0-1,0c-0.5,0-0.8,0.1-1,0.2
			c-0.2,0.2-0.3,0.4-0.3,0.8c0,0.2,0,0.3,0.1,0.4c0.1,0.1,0.2,0.2,0.4,0.2l2,0.5c0.6,0.1,1,0.3,1.3,0.4c0.3,0.1,0.5,0.3,0.6,0.5
			c0.2,0.2,0.3,0.5,0.4,0.8c0.1,0.3,0.1,0.8,0.1,1.2c0,1.2-0.3,2.1-1,2.7c-0.7,0.6-1.7,0.8-3.1,0.8c-0.7,0-1.4,0-2-0.1
			c-0.6-0.1-1.1-0.2-1.5-0.3v-2.5c0.5,0.1,1,0.3,1.6,0.3c0.6,0.1,1.2,0.1,1.9,0.1c0.5,0,0.8-0.1,1-0.2c0.2-0.1,0.3-0.4,0.3-0.7
			c0-0.2,0-0.4-0.1-0.5C-668.5-683.5-668.7-683.6-668.8-683.6z"/>
		<path class="st5" d="M-653.9-690.3v10.7h-2.5v-6.4l-1.8,4.4h-2.1l-1.8-4.4v6.4h-2.5v-10.7h3.2l2.2,5.4l2.2-5.4H-653.9z"/>
		<path class="st5" d="M-650.3-679.6h-2.8l3.9-10.7h2.7l3.8,10.7h-2.8l-0.6-1.8h-3.9L-650.3-679.6z M-647.9-687.7
			c-0.1,0.3-0.2,0.7-0.3,1s-0.3,0.9-0.5,1.7l-0.4,1.4h2.6l-0.4-1.4c-0.1-0.4-0.3-0.9-0.4-1.4C-647.6-686.8-647.7-687.2-647.9-687.7z
			"/>
		<path class="st5" d="M-639.2-683.1v3.4h-2.6v-10.7h3.9c1.6,0,2.8,0.3,3.5,0.8c0.7,0.6,1,1.5,1,2.8c0,0.9-0.2,1.6-0.6,2.1
			c-0.4,0.6-0.9,1-1.7,1.2l2.6,3.7h-3.2l-2.2-3.4H-639.2z M-636-686.7c0-0.5-0.1-0.8-0.4-1s-0.8-0.3-1.5-0.3h-1.3v2.7h1.3
			c0.7,0,1.2-0.1,1.5-0.3C-636.2-685.7-636-686.1-636-686.7z"/>
		<path class="st5" d="M-624.1-690.3v2.4h-2.9v8.3h-2.6v-8.3h-2.9v-2.4H-624.1z"/>
		<path class="st5" d="M-681.9-667.4c0.5,0,0.9,0,1.5-0.1c0.5-0.1,1-0.2,1.4-0.4v2.3c-0.6,0.2-1.2,0.4-1.7,0.5
			c-0.5,0.1-1,0.1-1.6,0.1c-1,0-1.8-0.1-2.4-0.3c-0.6-0.2-1.1-0.6-1.4-1.1c-0.3-0.4-0.5-1-0.7-1.7c-0.1-0.7-0.2-1.5-0.2-2.4
			c0-1.9,0.4-3.3,1.2-4.2c0.8-0.9,2.1-1.3,3.9-1.3c0.5,0,1,0,1.4,0c0.4,0,0.8,0.1,1.1,0.1v2.3c-0.4,0-0.8,0-1.2-0.1
			c-0.4,0-0.8,0-1.3,0c-0.6,0-1.1,0.1-1.4,0.2s-0.5,0.3-0.7,0.6c-0.1,0.2-0.2,0.5-0.3,0.9c-0.1,0.4-0.1,0.8-0.1,1.4
			c0,0.5,0,1,0.1,1.3c0.1,0.4,0.1,0.7,0.2,0.9c0.1,0.3,0.4,0.5,0.6,0.6S-682.5-667.4-681.9-667.4z"/>
		<path class="st5" d="M-668.2-670.5c0,1.9-0.4,3.3-1.2,4.2s-2.1,1.3-3.8,1.3c-1.8,0-3.1-0.4-3.9-1.2c-0.7-0.8-1.1-2.2-1.1-4.3
			c0-1.9,0.4-3.3,1.2-4.2s2.1-1.3,3.8-1.3c1.8,0,3.1,0.4,3.9,1.2C-668.6-673.9-668.2-672.5-668.2-670.5z M-675.3-668.2
			c0.1,0.3,0.4,0.5,0.7,0.6c0.3,0.1,0.7,0.2,1.4,0.2s1.1-0.1,1.4-0.2c0.3-0.1,0.5-0.3,0.7-0.6c0.1-0.2,0.2-0.5,0.2-0.9
			c0.1-0.4,0.1-0.8,0.1-1.4c0-0.6,0-1.1-0.1-1.4c-0.1-0.4-0.1-0.7-0.2-0.9c-0.1-0.3-0.3-0.5-0.6-0.6c-0.3-0.1-0.8-0.2-1.4-0.2
			c-0.6,0-1.1,0.1-1.4,0.2c-0.3,0.1-0.5,0.3-0.6,0.6c-0.1,0.2-0.2,0.5-0.2,0.9c-0.1,0.4-0.1,0.8-0.1,1.4c0,0.6,0,1,0.1,1.4
			S-675.4-668.4-675.3-668.2z"/>
		<path class="st5" d="M-657.7-675.8v10.7h-2.5l-4.2-6.2v6.2h-2.5v-10.7h2.5l4.2,6.4v-6.4H-657.7z"/>
		<path class="st5" d="M-648.3-675.8v2.4h-2.9v8.3h-2.6v-8.3h-2.9v-2.4H-648.3z"/>
		<path class="st5" d="M-644.6-668.6v3.4h-2.6v-10.7h3.9c1.6,0,2.8,0.3,3.5,0.8c0.7,0.6,1,1.5,1,2.8c0,0.9-0.2,1.6-0.6,2.1
			c-0.4,0.6-0.9,1-1.7,1.2l2.6,3.7h-3.2l-2.2-3.4H-644.6z M-641.5-672.2c0-0.5-0.1-0.8-0.4-1s-0.8-0.3-1.5-0.3h-1.3v2.7h1.3
			c0.7,0,1.2-0.1,1.5-0.3C-641.6-671.2-641.5-671.6-641.5-672.2z"/>
		<path class="st5" d="M-635.5-665.1h-2.8l3.9-10.7h2.7l3.8,10.7h-2.8l-0.6-1.8h-3.9L-635.5-665.1z M-633-673.2
			c-0.1,0.3-0.2,0.7-0.3,1s-0.3,0.9-0.5,1.7l-0.4,1.4h2.6l-0.4-1.4c-0.1-0.4-0.3-0.9-0.4-1.4C-632.8-672.3-632.9-672.7-633-673.2z"
			/>
		<path class="st5" d="M-622.3-667.4c0.5,0,0.9,0,1.5-0.1c0.5-0.1,1-0.2,1.4-0.4v2.3c-0.6,0.2-1.2,0.4-1.7,0.5
			c-0.5,0.1-1,0.1-1.6,0.1c-1,0-1.8-0.1-2.4-0.3c-0.6-0.2-1.1-0.6-1.4-1.1c-0.3-0.4-0.5-1-0.7-1.7c-0.1-0.7-0.2-1.5-0.2-2.4
			c0-1.9,0.4-3.3,1.2-4.2c0.8-0.9,2.1-1.3,3.9-1.3c0.5,0,1,0,1.4,0c0.4,0,0.8,0.1,1.1,0.1v2.3c-0.4,0-0.8,0-1.2-0.1
			c-0.4,0-0.8,0-1.3,0c-0.6,0-1.1,0.1-1.4,0.2s-0.5,0.3-0.7,0.6c-0.1,0.2-0.2,0.5-0.3,0.9c-0.1,0.4-0.1,0.8-0.1,1.4
			c0,0.5,0,1,0.1,1.3c0.1,0.4,0.1,0.7,0.2,0.9c0.1,0.3,0.4,0.5,0.6,0.6S-622.9-667.4-622.3-667.4z"/>
		<path class="st5" d="M-610.5-675.8v2.4h-2.9v8.3h-2.6v-8.3h-2.9v-2.4H-610.5z"/>
	</g>
	<g>
		<g>
			<path class="st1" d="M-689-609l-1.4-0.3c-0.6-0.1-0.9-0.3-1.1-0.6s-0.3-0.7-0.3-1.2c0-0.8,0.2-1.4,0.6-1.8c0.4-0.4,1.1-0.6,2-0.6
				c0.4,0,0.7,0,1,0s0.6,0.1,0.8,0.2v1.5c-0.6-0.1-0.9-0.2-1.2-0.2s-0.4,0-0.7,0c-0.3,0-0.5,0.1-0.7,0.2c-0.1,0.1-0.2,0.3-0.2,0.5
				c0,0.1,0,0.2,0.1,0.3s0.1,0.1,0.3,0.1l1.3,0.3c0.4,0.1,0.7,0.2,0.8,0.3c0.2,0.1,0.3,0.2,0.4,0.3c0.1,0.1,0.2,0.3,0.3,0.5
				c0.1,0.2,0.1,0.5,0.1,0.8c0,0.8-0.2,1.4-0.6,1.7c-0.4,0.4-1.1,0.5-2,0.5c-0.5,0-0.9,0-1.3-0.1c-0.4-0.1-0.7-0.1-1-0.2v-1.6
				c0.3,0.1,0.6,0.2,1,0.2c0.4,0.1,0.8,0.1,1.2,0.1c0.3,0,0.5,0,0.7-0.1s0.2-0.2,0.2-0.5c0-0.2,0-0.3-0.1-0.3
				C-688.8-608.9-688.9-608.9-689-609z"/>
			<path class="st1" d="M-681.2-613.3v1.5h-1.9v5.4h-1.7v-5.4h-1.9v-1.5H-681.2z"/>
			<path class="st1" d="M-679.3-606.4h-1.8l2.6-6.9h1.8l2.5,6.9h-1.8l-0.4-1.2h-2.5L-679.3-606.4z M-677.7-611.6
				c-0.1,0.2-0.1,0.4-0.2,0.7c-0.1,0.2-0.2,0.6-0.3,1.1l-0.3,0.9h1.7l-0.3-0.9c-0.1-0.3-0.2-0.6-0.3-0.9
				C-677.5-611-677.6-611.3-677.7-611.6z"/>
			<path class="st1" d="M-672-608.6v2.2h-1.7v-6.9h2.5c1.1,0,1.8,0.2,2.3,0.5s0.7,1,0.7,1.8c0,0.6-0.1,1-0.4,1.4s-0.6,0.6-1.1,0.8
				l1.7,2.4h-2.1l-1.4-2.2H-672z M-670-611c0-0.3-0.1-0.5-0.3-0.6c-0.2-0.1-0.5-0.2-0.9-0.2h-0.8v1.8h0.8c0.5,0,0.8-0.1,0.9-0.2
				C-670.1-610.4-670-610.6-670-611z"/>
			<path class="st1" d="M-662.3-613.3v1.5h-1.9v5.4h-1.7v-5.4h-1.9v-1.5H-662.3z"/>
			<path class="st1" d="M-659.9-613.3v6.9h-1.7v-6.9H-659.9z"/>
			<path class="st1" d="M-652.9-613.3v6.9h-1.6l-2.7-4v4h-1.6v-6.9h1.6l2.7,4.1v-4.1H-652.9z"/>
			<path class="st1" d="M-647.9-609h-1.2v-1.4h2.8v3.6c-0.2,0.1-0.6,0.2-1.1,0.3c-0.5,0.1-1,0.1-1.4,0.1c-1.2,0-2-0.3-2.5-0.8
				c-0.5-0.6-0.7-1.5-0.7-2.7c0-1.2,0.3-2.1,0.8-2.7s1.4-0.9,2.6-0.9c0.4,0,0.8,0,1.2,0c0.3,0,0.6,0,0.8,0.1v1.5c-0.2,0-0.5,0-0.9,0
				c-0.3,0-0.7,0-1.1,0c-0.4,0-0.7,0-0.9,0.1c-0.2,0.1-0.4,0.2-0.5,0.4c-0.1,0.1-0.2,0.3-0.2,0.6c0,0.2-0.1,0.6-0.1,0.9
				c0,0.4,0,0.7,0.1,0.9c0,0.2,0.1,0.4,0.2,0.6c0.1,0.2,0.2,0.3,0.4,0.4c0.2,0.1,0.5,0.1,0.9,0.1c0.1,0,0.3,0,0.4,0
				c0.1,0,0.3,0,0.4,0V-609z"/>
			<path class="st1" d="M-638.7-608.3c0,0.7-0.2,1.2-0.5,1.5c-0.4,0.3-1,0.4-1.8,0.4h-2.3v-6.9h2.3c0.7,0,1.3,0.1,1.6,0.4
				c0.3,0.2,0.5,0.7,0.5,1.3c0,0.5-0.1,0.8-0.3,1.1c-0.2,0.3-0.5,0.4-0.9,0.5c0.5,0,0.8,0.2,1.1,0.5
				C-638.9-609.3-638.7-608.9-638.7-608.3z M-639.4-611.6c0-0.5-0.1-0.8-0.4-1c-0.2-0.2-0.7-0.3-1.3-0.3h-1.9v2.7h1.9
				c0.6,0,1-0.1,1.3-0.3C-639.6-610.7-639.4-611.1-639.4-611.6z M-639.1-608.4c0-0.6-0.1-0.9-0.4-1.1c-0.3-0.2-0.8-0.3-1.5-0.3h-1.9
				v3h1.9c0.7,0,1.2-0.1,1.5-0.4S-639.1-607.8-639.1-608.4z"/>
			<path class="st1" d="M-636.8-609.1v2.7h-0.4v-6.9h2.2c0.9,0,1.6,0.2,2,0.5c0.4,0.3,0.6,0.8,0.6,1.6c0,0.6-0.1,1.1-0.4,1.5
				c-0.3,0.4-0.7,0.6-1.3,0.7l1.9,2.7h-0.5l-1.9-2.7c0,0-0.1,0-0.1,0s-0.1,0-0.2,0H-636.8z M-632.8-611.3c0-0.6-0.2-1-0.5-1.3
				s-0.9-0.4-1.7-0.4h-1.8v3.5h1.8c0.8,0,1.3-0.1,1.7-0.4S-632.8-610.6-632.8-611.3z"/>
			<path class="st1" d="M-631.1-606.4h-0.4l2.9-6.9h0.4l2.8,6.9h-0.4l-0.8-2h-3.6L-631.1-606.4z M-628.5-612.9
				c-0.1,0.2-0.1,0.4-0.2,0.6c-0.1,0.2-0.2,0.5-0.4,0.9l-1.1,2.6h3.3l-1.1-2.6c-0.2-0.4-0.3-0.7-0.4-1
				C-628.4-612.7-628.5-612.8-628.5-612.9z"/>
			<path class="st1" d="M-618.8-613.3v6.9h-0.5l-4.6-6.3v6.3h-0.4v-6.9h0.5l4.6,6.3v-6.3H-618.8z"/>
			<path class="st1" d="M-615.1-606.4h-1.7v-6.9h1.7c0.7,0,1.3,0.1,1.7,0.2s0.8,0.3,1,0.6c0.2,0.3,0.4,0.6,0.5,1
				c0.1,0.4,0.2,1,0.2,1.7c0,1.2-0.3,2.1-0.8,2.6S-613.9-606.4-615.1-606.4z M-612.8-612.3c-0.2-0.2-0.5-0.4-0.9-0.5
				c-0.4-0.1-0.9-0.2-1.5-0.2h-1.3v6.1h1.3c1.1,0,1.8-0.2,2.3-0.7c0.5-0.5,0.7-1.3,0.7-2.4c0-0.6,0-1.1-0.1-1.5
				C-612.4-611.7-612.5-612-612.8-612.3z"/>
			<path class="st1" d="M-607.4-609.5l-1.9-0.4c-0.4-0.1-0.7-0.3-0.9-0.5c-0.2-0.2-0.3-0.6-0.3-1c0-0.7,0.2-1.1,0.6-1.4
				s1-0.4,1.8-0.4c0.3,0,0.6,0,0.9,0c0.3,0,0.5,0.1,0.8,0.1v0.4c-0.2-0.1-0.5-0.1-0.8-0.1s-0.6,0-0.9,0c-0.7,0-1.2,0.1-1.5,0.3
				c-0.3,0.2-0.5,0.6-0.5,1.1c0,0.4,0.1,0.6,0.2,0.8c0.2,0.2,0.4,0.3,0.7,0.4l1.9,0.5c0.5,0.1,0.9,0.3,1.1,0.5s0.3,0.6,0.3,1.1
				c0,0.7-0.2,1.2-0.6,1.5c-0.4,0.3-1,0.4-1.8,0.4c-0.4,0-0.9,0-1.3-0.1c-0.4-0.1-0.8-0.1-1-0.2v-0.4c0.4,0.1,0.7,0.2,1.1,0.2
				s0.8,0.1,1.2,0.1c0.7,0,1.2-0.1,1.5-0.3c0.3-0.2,0.4-0.6,0.4-1.3c0-0.4-0.1-0.6-0.2-0.8C-606.7-609.3-607-609.4-607.4-609.5z"/>
		</g>
	</g>
</g>
<g>
	<polygon class="st0" points="0,127.4 9.5,121.4 9.5,131.5 	"/>
	<polygon class="st0" points="104.6,127.4 95.1,121.4 95.1,131.5 	"/>
	<path class="st1" d="M89.5,131.5H16.5c-3.9,0-7-3.1-7-7V19.4h85.6v106.5C95.1,129,92.6,131.5,89.5,131.5z"/>
	<path class="st2" d="M87.7,118.6L87.7,118.6c0,2.8-2.3,5.2-5.2,5.2H22c-2.8,0-5.2-2.3-5.2-5.2l0,0c0-0.8-0.7-1.5-1.5-1.5H9.5v10.5
		c0,2.1,1.7,3.9,3.9,3.9h77.9c2.1,0,3.9-1.7,3.9-3.9v-10.5h-5.9C88.4,117.1,87.7,117.8,87.7,118.6z"/>
	
		<linearGradient id="SVGID_00000015346945673742235820000016979751163450959797_" gradientUnits="userSpaceOnUse" x1="9.4798" y1="14.2148" x2="95.0731" y2="14.2148">
		<stop  offset="0" style="stop-color:#F93DF9"/>
		<stop  offset="0.9674" style="stop-color:#FF14BF"/>
		<stop  offset="1" style="stop-color:#FF13BD"/>
	</linearGradient>
	<path style="fill:url(#SVGID_00000015346945673742235820000016979751163450959797_);" d="M87.7,26.9L87.7,26.9
		c0-2.8-2.3-5.2-5.2-5.2H22c-2.8,0-5.2,2.3-5.2,5.2l0,0c0,0.8-0.7,1.5-1.5,1.5H9.5V3.9c0-2.1,1.7-3.9,3.9-3.9h77.9
		c2.1,0,3.9,1.7,3.9,3.9v24.6h-5.9C88.4,28.4,87.7,27.8,87.7,26.9z"/>
	
		<linearGradient id="SVGID_00000117651080289776519020000011677864623398470546_" gradientUnits="userSpaceOnUse" x1="-1017.8519" y1="11134.3818" x2="-1017.8519" y2="11108.2383" gradientTransform="matrix(-1 0 0 -1 -965.5755 11261.833)">
		<stop  offset="0" style="stop-color:#F93DF9"/>
		<stop  offset="0.9674" style="stop-color:#FF14BF"/>
		<stop  offset="1" style="stop-color:#FF13BD"/>
	</linearGradient>
	<path style="fill:url(#SVGID_00000117651080289776519020000011677864623398470546_);" d="M0,127.4h104.6v21.8c0,2.5-2,4.6-4.6,4.6
		H4.6c-2.5,0-4.6-2-4.6-4.6V127.4z"/>
	<g>
		<path class="st1" d="M48.5,7v10h-2.4l-4-5.8V17h-2.3V7h2.3l4,6V7H48.5z"/>
		<path class="st1" d="M52.5,13.4V17h-2.5V7h6.7v2.2h-4.3v2.1h3.7v2.1H52.5z"/>
		<path class="st1" d="M65.2,7v2.2h-2.7V17H60V9.3h-2.7V7H65.2z"/>
	</g>
	<g>
		<g>
			<path class="st5" d="M33.1,68v10.7h-2.5v-6.4l-1.8,4.4h-2.1l-1.8-4.4v6.4h-2.5V68h3.2l2.2,5.4L30,68H33.1z"/>
			<path class="st5" d="M37.4,68v10.7h-2.6V68H37.4z"/>
			<path class="st5" d="M48.2,68v10.7h-2.5l-4.2-6.2v6.2H39V68h2.5l4.2,6.4V68H48.2z"/>
			<path class="st5" d="M57.7,68v2.4h-2.9v8.3h-2.6v-8.3h-2.9V68H57.7z"/>
			<path class="st5" d="M61.4,68v10.7h-2.6V68H61.4z"/>
			<path class="st5" d="M72.2,68v10.7h-2.5l-4.2-6.2v6.2H63V68h2.5l4.2,6.4V68H72.2z"/>
			<path class="st5" d="M79.9,74.7h-1.8v-2.1h4.3v5.6c-0.3,0.1-0.9,0.3-1.7,0.4c-0.8,0.1-1.6,0.2-2.2,0.2c-1.8,0-3.1-0.4-3.9-1.3
				c-0.7-0.9-1.1-2.3-1.1-4.2c0-1.9,0.4-3.3,1.3-4.2c0.8-0.9,2.2-1.3,4-1.3c0.7,0,1.3,0,1.8,0c0.5,0,0.9,0.1,1.2,0.1v2.3
				c-0.4,0-0.8-0.1-1.3-0.1c-0.5,0-1.1,0-1.7,0c-0.6,0-1.1,0.1-1.4,0.2c-0.3,0.1-0.5,0.3-0.7,0.6c-0.1,0.2-0.3,0.5-0.3,0.9
				c-0.1,0.4-0.1,0.9-0.1,1.4c0,0.6,0,1,0.1,1.4s0.1,0.7,0.3,0.9c0.2,0.3,0.4,0.5,0.7,0.6c0.3,0.1,0.7,0.2,1.4,0.2
				c0.2,0,0.4,0,0.6,0c0.2,0,0.4,0,0.7-0.1V74.7z"/>
		</g>
	</g>
	<g>
		<g>
			<path class="st1" d="M26.4,146.2l-2.6-9.7h2.6l1,4.8c0,0.2,0.1,0.4,0.1,0.7c0,0.3,0.1,0.8,0.2,1.6c0-0.2,0.1-0.6,0.2-1.1
				s0.2-0.9,0.2-1.1l1-4.8h2.5l1,4.8c0,0.2,0.1,0.4,0.1,0.7c0,0.3,0.1,0.8,0.2,1.6c0-0.2,0.1-0.6,0.2-1.1s0.2-0.9,0.2-1.1l1-4.8H37
				l-2.5,9.7h-2.8l-0.6-2.9c-0.1-0.5-0.2-1-0.3-1.6c-0.1-0.5-0.2-1.2-0.3-1.8c-0.2,0.9-0.3,1.6-0.4,2.1c-0.1,0.5-0.2,0.9-0.3,1.3
				l-0.6,2.9H26.4z"/>
			<path class="st1" d="M44.4,144v2.2h-6.7v-9.7h6.6v2.2h-4.2v1.6h3.6v2h-3.6v1.7H44.4z"/>
			<path class="st1" d="M53.1,143.4c0,1-0.3,1.7-0.9,2.2c-0.6,0.5-1.5,0.7-2.7,0.7h-4v-9.7h4c1.1,0,1.9,0.2,2.4,0.6
				c0.5,0.4,0.7,1,0.7,1.9c0,0.6-0.1,1-0.2,1.3s-0.5,0.5-0.9,0.7c0.6,0.1,1,0.4,1.2,0.7S53.1,142.7,53.1,143.4z M50.4,139.4
				c0-0.3-0.1-0.6-0.2-0.7c-0.1-0.1-0.4-0.2-0.7-0.2h-1.6v2h1.6c0.3,0,0.5-0.1,0.7-0.2C50.3,140,50.4,139.8,50.4,139.4z M50.8,143.2
				c0-0.4-0.1-0.6-0.3-0.8c-0.2-0.1-0.5-0.2-1-0.2h-1.6v2h1.6c0.5,0,0.8-0.1,1-0.2C50.7,143.8,50.8,143.6,50.8,143.2z"/>
			<path class="st1" d="M57.8,142.6l-2-0.5c-0.8-0.2-1.3-0.5-1.6-0.9s-0.4-0.9-0.4-1.6c0-1.1,0.3-2,0.9-2.5c0.6-0.5,1.5-0.8,2.8-0.8
				c0.5,0,1,0,1.4,0.1c0.4,0,0.8,0.1,1.1,0.2v2.2c-0.8-0.1-1.3-0.2-1.6-0.2c-0.3,0-0.6,0-0.9,0c-0.4,0-0.7,0.1-0.9,0.2
				c-0.2,0.1-0.3,0.4-0.3,0.7c0,0.2,0,0.3,0.1,0.4c0.1,0.1,0.2,0.2,0.4,0.2l1.9,0.4c0.5,0.1,0.9,0.2,1.2,0.4
				c0.2,0.1,0.4,0.3,0.6,0.5c0.2,0.2,0.3,0.4,0.4,0.8c0.1,0.3,0.1,0.7,0.1,1.1c0,1.1-0.3,1.9-0.9,2.4c-0.6,0.5-1.5,0.8-2.8,0.8
				c-0.6,0-1.2,0-1.8-0.1c-0.6-0.1-1-0.2-1.3-0.3v-2.3c0.4,0.1,0.9,0.2,1.5,0.3c0.6,0.1,1.1,0.1,1.7,0.1c0.5,0,0.8-0.1,0.9-0.2
				c0.2-0.1,0.3-0.3,0.3-0.7c0-0.2,0-0.4-0.1-0.5C58.1,142.7,58,142.6,57.8,142.6z"/>
			<path class="st1" d="M64.1,136.5v9.7h-2.4v-9.7H64.1z"/>
			<path class="st1" d="M72.7,136.5v2.2h-2.6v7.5h-2.4v-7.5H65v-2.2H72.7z"/>
			<path class="st1" d="M80.4,144v2.2h-6.7v-9.7h6.6v2.2h-4.2v1.6h3.6v2h-3.6v1.7H80.4z"/>
		</g>
	</g>
</g>
<g>
	<polygon class="st0" points="-992.7,-624.6 -983.2,-630.6 -983.2,-620.5 	"/>
	<polygon class="st0" points="-888.1,-624.6 -897.6,-630.6 -897.6,-620.5 	"/>
	<path class="st1" d="M-903.2-620.5h-72.9c-3.9,0-7-3.1-7-7v-105.1h85.6v106.5C-897.6-623-900.1-620.5-903.2-620.5z"/>
	<path class="st2" d="M-905-633.4L-905-633.4c0,2.8-2.3,5.2-5.2,5.2h-60.5c-2.8,0-5.2-2.3-5.2-5.2l0,0c0-0.8-0.7-1.5-1.5-1.5h-5.9
		v10.5c0,2.1,1.7,3.9,3.9,3.9h77.9c2.1,0,3.9-1.7,3.9-3.9v-10.5h-5.9C-904.3-634.9-905-634.2-905-633.4z"/>
	
		<linearGradient id="SVGID_00000041975870469510046620000011618057152807203765_" gradientUnits="userSpaceOnUse" x1="-983.2056" y1="-737.7852" x2="-897.6122" y2="-737.7852">
		<stop  offset="0" style="stop-color:#F93DF9"/>
		<stop  offset="0.9674" style="stop-color:#FF14BF"/>
		<stop  offset="1" style="stop-color:#FF13BD"/>
	</linearGradient>
	<path style="fill:url(#SVGID_00000041975870469510046620000011618057152807203765_);" d="M-905-725.1L-905-725.1
		c0-2.8-2.3-5.2-5.2-5.2h-60.5c-2.8,0-5.2,2.3-5.2,5.2l0,0c0,0.8-0.7,1.5-1.5,1.5h-5.9v-24.6c0-2.1,1.7-3.9,3.9-3.9h77.9
		c2.1,0,3.9,1.7,3.9,3.9v24.6h-5.9C-904.3-723.6-905-724.2-905-725.1z"/>
	
		<linearGradient id="SVGID_00000008844700644487121010000010659760811360523937_" gradientUnits="userSpaceOnUse" x1="-25.1666" y1="11886.3818" x2="-25.1666" y2="11860.2383" gradientTransform="matrix(-1 0 0 -1 -965.5755 11261.833)">
		<stop  offset="0" style="stop-color:#F93DF9"/>
		<stop  offset="0.9674" style="stop-color:#FF14BF"/>
		<stop  offset="1" style="stop-color:#FF13BD"/>
	</linearGradient>
	<path style="fill:url(#SVGID_00000008844700644487121010000010659760811360523937_);" d="M-992.7-624.6h104.6v21.8
		c0,2.5-2,4.6-4.6,4.6h-95.4c-2.5,0-4.6-2-4.6-4.6V-624.6z"/>
	<g>
		<path class="st1" d="M-947.7-735h-2.5v-7.8l-2.4,0.3v-2.1l4.8-0.6V-735z"/>
		<path class="st1" d="M-938.2-740c0,1.9-0.3,3.2-0.9,4c-0.6,0.8-1.6,1.2-3.1,1.2c-0.9,0-1.7-0.1-2.2-0.3c-0.5-0.2-0.9-0.6-1.2-1.1
			c-0.2-0.4-0.4-0.9-0.5-1.5c-0.1-0.6-0.2-1.4-0.2-2.3c0-1.9,0.3-3.2,0.9-4s1.6-1.2,3.1-1.2c0.9,0,1.7,0.1,2.2,0.3
			c0.5,0.2,0.9,0.6,1.2,1.1c0.2,0.4,0.4,0.9,0.5,1.5C-938.3-741.7-938.2-740.9-938.2-740z M-940.8-740c0-1.2-0.1-2-0.3-2.4
			c-0.2-0.4-0.6-0.5-1.2-0.5s-1.1,0.2-1.2,0.6c-0.2,0.4-0.3,1.2-0.3,2.4c0,1.2,0.1,1.9,0.3,2.3c0.2,0.4,0.6,0.5,1.2,0.5
			s1-0.2,1.2-0.5C-940.8-738-940.8-738.8-940.8-740z"/>
		<path class="st1" d="M-931.8-740.1l3.7,5.1h-3.1l-2.7-4.1h-0.7v4.1h-2.5v-10h2.5v3.9h0.7l2.8-3.9h3L-931.8-740.1z"/>
	</g>
	<g>
		<g>
			<path class="st5" d="M-972.2-673.3h-2.8l3.9-10.7h2.7l3.8,10.7h-2.8l-0.6-1.8h-3.9L-972.2-673.3z M-969.7-681.4
				c-0.1,0.3-0.2,0.7-0.3,1s-0.3,0.9-0.5,1.7l-0.4,1.4h2.6l-0.4-1.4c-0.1-0.4-0.3-0.9-0.4-1.4C-969.4-680.5-969.5-680.9-969.7-681.4
				z"/>
			<path class="st5" d="M-960.8-673.3l-3.7-10.7h2.9l1.6,5.3c0.1,0.4,0.2,0.8,0.4,1.4c0.1,0.6,0.3,1.2,0.4,1.7
				c0.2-1,0.4-1.8,0.5-2.2s0.2-0.7,0.2-1l1.6-5.3h2.9l-3.7,10.7H-960.8z"/>
			<path class="st5" d="M-951.2-673.3h-2.8l3.9-10.7h2.7l3.8,10.7h-2.8l-0.6-1.8h-3.9L-951.2-673.3z M-948.7-681.4
				c-0.1,0.3-0.2,0.7-0.3,1s-0.3,0.9-0.5,1.7l-0.4,1.4h2.6l-0.4-1.4c-0.1-0.4-0.3-0.9-0.4-1.4C-948.5-680.5-948.6-680.9-948.7-681.4
				z"/>
			<path class="st5" d="M-934.8-684v2.4h-2.9v8.3h-2.6v-8.3h-2.9v-2.4H-934.8z"/>
			<path class="st5" d="M-931.9-673.3h-2.8l3.9-10.7h2.7l3.8,10.7h-2.8l-0.6-1.8h-3.9L-931.9-673.3z M-929.4-681.4
				c-0.1,0.3-0.2,0.7-0.3,1s-0.3,0.9-0.5,1.7l-0.4,1.4h2.6l-0.4-1.4c-0.1-0.4-0.3-0.9-0.4-1.4C-929.1-680.5-929.3-680.9-929.4-681.4
				z"/>
			<path class="st5" d="M-920.7-676.8v3.4h-2.6V-684h3.9c1.6,0,2.8,0.3,3.5,0.8c0.7,0.6,1,1.5,1,2.8c0,0.9-0.2,1.6-0.6,2.1
				c-0.4,0.6-0.9,1-1.7,1.2l2.6,3.7h-3.2l-2.2-3.4H-920.7z M-917.6-680.4c0-0.5-0.1-0.8-0.4-1s-0.8-0.3-1.5-0.3h-1.3v2.7h1.3
				c0.7,0,1.2-0.1,1.5-0.3C-917.7-679.4-917.6-679.8-917.6-680.4z"/>
			<path class="st5" d="M-909.5-677.3l-2.2-0.5c-0.9-0.2-1.4-0.5-1.8-0.9s-0.5-1-0.5-1.8c0-1.2,0.3-2.1,1-2.7c0.7-0.6,1.7-0.9,3-0.9
				c0.6,0,1.1,0,1.5,0.1c0.4,0,0.9,0.1,1.2,0.2v2.4c-0.9-0.1-1.5-0.2-1.8-0.3c-0.3,0-0.7,0-1,0c-0.5,0-0.8,0.1-1,0.2
				c-0.2,0.2-0.3,0.4-0.3,0.8c0,0.2,0,0.3,0.1,0.4c0.1,0.1,0.2,0.2,0.4,0.2l2,0.5c0.6,0.1,1,0.3,1.3,0.4c0.3,0.1,0.5,0.3,0.6,0.5
				c0.2,0.2,0.3,0.5,0.4,0.8c0.1,0.3,0.1,0.8,0.1,1.2c0,1.2-0.3,2.1-1,2.7c-0.7,0.6-1.7,0.8-3.1,0.8c-0.7,0-1.4,0-2-0.1
				c-0.6-0.1-1.1-0.2-1.5-0.3v-2.5c0.5,0.1,1,0.3,1.6,0.3c0.6,0.1,1.2,0.1,1.9,0.1c0.5,0,0.8-0.1,1-0.2c0.2-0.1,0.3-0.4,0.3-0.7
				c0-0.2,0-0.4-0.1-0.5C-909.2-677.2-909.3-677.3-909.5-677.3z"/>
		</g>
	</g>
	<g>
		<g>
			<path class="st1" d="M-975.3-607.9c0.4,0,0.9,0,1.3-0.1s0.9-0.2,1.3-0.3v2.1c-0.6,0.2-1.1,0.4-1.5,0.5c-0.5,0.1-0.9,0.1-1.4,0.1
				c-0.9,0-1.6-0.1-2.2-0.3c-0.5-0.2-1-0.5-1.3-1c-0.3-0.4-0.5-0.9-0.6-1.5c-0.1-0.6-0.2-1.3-0.2-2.2c0-1.7,0.4-3,1.1-3.8
				c0.7-0.8,1.9-1.2,3.6-1.2c0.5,0,0.9,0,1.3,0c0.4,0,0.7,0.1,1,0.1v2.1c-0.3,0-0.7,0-1.1,0c-0.4,0-0.8,0-1.2,0
				c-0.6,0-1,0.1-1.3,0.2s-0.5,0.3-0.6,0.6c-0.1,0.2-0.2,0.5-0.3,0.8s-0.1,0.8-0.1,1.3c0,0.5,0,0.9,0.1,1.2s0.1,0.6,0.2,0.8
				c0.1,0.3,0.3,0.5,0.6,0.6C-976.2-607.9-975.8-607.9-975.3-607.9z"/>
			<path class="st1" d="M-962.8-610.7c0,1.8-0.4,3-1.1,3.8c-0.7,0.8-1.9,1.2-3.5,1.2c-1.7,0-2.9-0.4-3.5-1.1c-0.7-0.7-1-2-1-3.9
				c0-1.8,0.4-3,1.1-3.8c0.7-0.8,1.9-1.2,3.5-1.2c1.7,0,2.9,0.4,3.5,1.1C-963.1-613.8-962.8-612.5-962.8-610.7z M-969.2-608.6
				c0.1,0.3,0.3,0.4,0.6,0.5c0.3,0.1,0.7,0.2,1.2,0.2c0.6,0,1-0.1,1.2-0.2c0.3-0.1,0.5-0.3,0.6-0.5c0.1-0.2,0.2-0.5,0.2-0.8
				c0-0.3,0.1-0.8,0.1-1.3c0-0.5,0-1-0.1-1.3c0-0.3-0.1-0.6-0.2-0.8c-0.1-0.3-0.3-0.5-0.6-0.6s-0.7-0.2-1.3-0.2
				c-0.6,0-1,0.1-1.3,0.2c-0.3,0.1-0.5,0.3-0.6,0.6c-0.1,0.2-0.2,0.5-0.2,0.8c0,0.3-0.1,0.8-0.1,1.3c0,0.5,0,0.9,0.1,1.3
				C-969.4-609.1-969.3-608.8-969.2-608.6z"/>
			<path class="st1" d="M-955.4-608v2.2h-6.2v-9.7h2.4v7.5H-955.4z"/>
			<path class="st1" d="M-948.3-608v2.2h-6.2v-9.7h2.4v7.5H-948.3z"/>
			<path class="st1" d="M-940.7-608v2.2h-6.7v-9.7h6.6v2.2h-4.2v1.6h3.6v2h-3.6v1.7H-940.7z"/>
			<path class="st1" d="M-935.3-607.9c0.4,0,0.9,0,1.3-0.1s0.9-0.2,1.3-0.3v2.1c-0.6,0.2-1.1,0.4-1.5,0.5c-0.5,0.1-0.9,0.1-1.4,0.1
				c-0.9,0-1.6-0.1-2.2-0.3c-0.5-0.2-1-0.5-1.3-1c-0.3-0.4-0.5-0.9-0.6-1.5c-0.1-0.6-0.2-1.3-0.2-2.2c0-1.7,0.4-3,1.1-3.8
				c0.7-0.8,1.9-1.2,3.6-1.2c0.5,0,0.9,0,1.3,0c0.4,0,0.7,0.1,1,0.1v2.1c-0.3,0-0.7,0-1.1,0c-0.4,0-0.8,0-1.2,0
				c-0.6,0-1,0.1-1.3,0.2s-0.5,0.3-0.6,0.6c-0.1,0.2-0.2,0.5-0.3,0.8s-0.1,0.8-0.1,1.3c0,0.5,0,0.9,0.1,1.2s0.1,0.6,0.2,0.8
				c0.1,0.3,0.3,0.5,0.6,0.6C-936.2-607.9-935.8-607.9-935.3-607.9z"/>
			<path class="st1" d="M-924.5-615.5v2.2h-2.6v7.5h-2.4v-7.5h-2.6v-2.2H-924.5z"/>
			<path class="st1" d="M-921.2-615.5v9.7h-2.4v-9.7H-921.2z"/>
			<path class="st1" d="M-910.9-610.7c0,1.8-0.4,3-1.1,3.8c-0.7,0.8-1.9,1.2-3.5,1.2c-1.7,0-2.9-0.4-3.5-1.1c-0.7-0.7-1-2-1-3.9
				c0-1.8,0.4-3,1.1-3.8c0.7-0.8,1.9-1.2,3.5-1.2c1.7,0,2.9,0.4,3.5,1.1C-911.2-613.8-910.9-612.5-910.9-610.7z M-917.3-608.6
				c0.1,0.3,0.3,0.4,0.6,0.5c0.3,0.1,0.7,0.2,1.2,0.2c0.6,0,1-0.1,1.2-0.2c0.3-0.1,0.5-0.3,0.6-0.5c0.1-0.2,0.2-0.5,0.2-0.8
				c0-0.3,0.1-0.8,0.1-1.3c0-0.5,0-1-0.1-1.3c0-0.3-0.1-0.6-0.2-0.8c-0.1-0.3-0.3-0.5-0.6-0.6s-0.7-0.2-1.3-0.2
				c-0.6,0-1,0.1-1.3,0.2c-0.3,0.1-0.5,0.3-0.6,0.6c-0.1,0.2-0.2,0.5-0.2,0.8c0,0.3-0.1,0.8-0.1,1.3c0,0.5,0,0.9,0.1,1.3
				C-917.5-609.1-917.4-608.8-917.3-608.6z"/>
			<path class="st1" d="M-901.3-615.5v9.7h-2.3l-3.8-5.6v5.6h-2.2v-9.7h2.3l3.9,5.8v-5.8H-901.3z"/>
		</g>
	</g>
</g>
<g>
	<polygon class="st0" points="-846.9,-624.6 -837.4,-630.6 -837.4,-620.5 	"/>
	<polygon class="st0" points="-742.3,-624.6 -751.8,-630.6 -751.8,-620.5 	"/>
	<path class="st1" d="M-757.4-620.5h-72.9c-3.9,0-7-3.1-7-7v-105.1h85.6v106.5C-751.8-623-754.3-620.5-757.4-620.5z"/>
	<path class="st2" d="M-759.2-633.4L-759.2-633.4c0,2.8-2.3,5.2-5.2,5.2h-60.5c-2.8,0-5.2-2.3-5.2-5.2l0,0c0-0.8-0.7-1.5-1.5-1.5
		h-5.9v10.5c0,2.1,1.7,3.9,3.9,3.9h77.9c2.1,0,3.9-1.7,3.9-3.9v-10.5h-5.9C-758.5-634.9-759.2-634.2-759.2-633.4z"/>
	
		<linearGradient id="SVGID_00000048467661378247343850000015428543756958914235_" gradientUnits="userSpaceOnUse" x1="-837.3934" y1="-737.7852" x2="-751.8001" y2="-737.7852">
		<stop  offset="0" style="stop-color:#F93DF9"/>
		<stop  offset="0.9674" style="stop-color:#FF14BF"/>
		<stop  offset="1" style="stop-color:#FF13BD"/>
	</linearGradient>
	<path style="fill:url(#SVGID_00000048467661378247343850000015428543756958914235_);" d="M-759.2-725.1L-759.2-725.1
		c0-2.8-2.3-5.2-5.2-5.2h-60.5c-2.8,0-5.2,2.3-5.2,5.2l0,0c0,0.8-0.7,1.5-1.5,1.5h-5.9v-24.6c0-2.1,1.7-3.9,3.9-3.9h77.9
		c2.1,0,3.9,1.7,3.9,3.9v24.6h-5.9C-758.5-723.6-759.2-724.2-759.2-725.1z"/>
	
		<linearGradient id="SVGID_00000132066783321232109220000009225456071462419135_" gradientUnits="userSpaceOnUse" x1="-170.9788" y1="11886.3818" x2="-170.9788" y2="11860.2383" gradientTransform="matrix(-1 0 0 -1 -965.5755 11261.833)">
		<stop  offset="0" style="stop-color:#F93DF9"/>
		<stop  offset="0.9674" style="stop-color:#FF14BF"/>
		<stop  offset="1" style="stop-color:#FF13BD"/>
	</linearGradient>
	<path style="fill:url(#SVGID_00000132066783321232109220000009225456071462419135_);" d="M-846.9-624.6h104.6v21.8
		c0,2.5-2,4.6-4.6,4.6h-95.4c-2.5,0-4.6-2-4.6-4.6V-624.6z"/>
	<g>
		<path class="st1" d="M-823.3-738.2v3.2h-2.5v-10h3.6c1.5,0,2.6,0.3,3.3,0.8c0.6,0.5,1,1.4,1,2.6c0,0.8-0.2,1.5-0.5,2
			c-0.3,0.5-0.9,0.9-1.6,1.1l2.4,3.5h-3l-2.1-3.2H-823.3z M-820.4-741.6c0-0.4-0.1-0.7-0.4-0.9s-0.7-0.3-1.4-0.3h-1.2v2.5h1.2
			c0.7,0,1.1-0.1,1.4-0.3S-820.4-741.1-820.4-741.6z"/>
		<path class="st1" d="M-807.5-740c0,1.8-0.4,3.1-1.1,3.9c-0.7,0.8-1.9,1.2-3.6,1.2c-1.7,0-2.9-0.4-3.6-1.1c-0.7-0.8-1.1-2.1-1.1-4
			c0-1.8,0.4-3.1,1.1-3.9c0.7-0.8,1.9-1.2,3.6-1.2c1.7,0,2.9,0.4,3.6,1.1S-807.5-741.9-807.5-740z M-814.1-737.9
			c0.1,0.3,0.3,0.5,0.6,0.6c0.3,0.1,0.7,0.2,1.3,0.2s1-0.1,1.3-0.2c0.3-0.1,0.5-0.3,0.6-0.6c0.1-0.2,0.2-0.5,0.2-0.8
			s0.1-0.8,0.1-1.3c0-0.5,0-1-0.1-1.3c0-0.3-0.1-0.6-0.2-0.8c-0.1-0.3-0.3-0.5-0.6-0.6c-0.3-0.1-0.7-0.2-1.3-0.2s-1,0.1-1.3,0.2
			c-0.3,0.1-0.5,0.3-0.6,0.6c-0.1,0.2-0.2,0.5-0.2,0.8c0,0.3-0.1,0.8-0.1,1.3c0,0.5,0,1,0.1,1.3S-814.2-738.1-814.1-737.9z"/>
		<path class="st1" d="M-800.2-745h2.5l-3.5,6.4v3.6h-2.5v-3.6l-3.6-6.4h2.8l2,4.2L-800.2-745z"/>
		<path class="st1" d="M-795.1-735h-2.6l3.7-10h2.6l3.6,10h-2.6l-0.5-1.7h-3.6L-795.1-735z M-792.7-742.5c-0.1,0.3-0.2,0.6-0.3,0.9
			c-0.1,0.3-0.3,0.9-0.5,1.6l-0.4,1.3h2.4l-0.4-1.3c-0.1-0.4-0.3-0.8-0.4-1.3C-792.5-741.7-792.6-742.1-792.7-742.5z"/>
		<path class="st1" d="M-780.7-737.3v2.3h-6.4v-10h2.5v7.7H-780.7z"/>
		<path class="st1" d="M-772.4-745v2.2h-2.7v7.8h-2.5v-7.8h-2.7v-2.2H-772.4z"/>
		<path class="st1" d="M-765.2-745h2.5l-3.5,6.4v3.6h-2.5v-3.6l-3.6-6.4h2.8l2,4.2L-765.2-745z"/>
	</g>
	<g>
		<g>
			<path class="st5" d="M-814.7-684.2l-2.2-0.5c-0.9-0.2-1.4-0.5-1.8-0.9s-0.5-1-0.5-1.8c0-1.2,0.3-2.1,1-2.7c0.7-0.6,1.7-0.9,3-0.9
				c0.6,0,1.1,0,1.5,0.1c0.4,0,0.9,0.1,1.2,0.2v2.4c-0.9-0.1-1.5-0.2-1.8-0.3c-0.3,0-0.7,0-1,0c-0.5,0-0.8,0.1-1,0.2
				c-0.2,0.2-0.3,0.4-0.3,0.8c0,0.2,0,0.3,0.1,0.4c0.1,0.1,0.2,0.2,0.4,0.2l2,0.5c0.6,0.1,1,0.3,1.3,0.4c0.3,0.1,0.5,0.3,0.6,0.5
				c0.2,0.2,0.3,0.5,0.4,0.8c0.1,0.3,0.1,0.8,0.1,1.2c0,1.2-0.3,2.1-1,2.7c-0.7,0.6-1.7,0.8-3.1,0.8c-0.7,0-1.4,0-2-0.1
				c-0.6-0.1-1.1-0.2-1.5-0.3v-2.5c0.5,0.1,1,0.3,1.6,0.3c0.6,0.1,1.2,0.1,1.9,0.1c0.5,0,0.8-0.1,1-0.2c0.2-0.1,0.3-0.4,0.3-0.7
				c0-0.2,0-0.4-0.1-0.5C-814.4-684.1-814.5-684.2-814.7-684.2z"/>
			<path class="st5" d="M-799.7-690.9v10.7h-2.5v-6.4l-1.8,4.4h-2.1l-1.8-4.4v6.4h-2.5v-10.7h3.2l2.2,5.4l2.2-5.4H-799.7z"/>
			<path class="st5" d="M-796.2-680.3h-2.8l3.9-10.7h2.7l3.8,10.7h-2.8l-0.6-1.8h-3.9L-796.2-680.3z M-793.7-688.3
				c-0.1,0.3-0.2,0.7-0.3,1s-0.3,0.9-0.5,1.7l-0.4,1.4h2.6l-0.4-1.4c-0.1-0.4-0.3-0.9-0.4-1.4C-793.4-687.4-793.6-687.9-793.7-688.3
				z"/>
			<path class="st5" d="M-785-683.7v3.4h-2.6v-10.7h3.9c1.6,0,2.8,0.3,3.5,0.8c0.7,0.6,1,1.5,1,2.8c0,0.9-0.2,1.6-0.6,2.1
				c-0.4,0.6-0.9,1-1.7,1.2l2.6,3.7h-3.2l-2.2-3.4H-785z M-781.8-687.3c0-0.5-0.1-0.8-0.4-1s-0.8-0.3-1.5-0.3h-1.3v2.7h1.3
				c0.7,0,1.2-0.1,1.5-0.3C-782-686.4-781.8-686.8-781.8-687.3z"/>
			<path class="st5" d="M-769.9-690.9v2.4h-2.9v8.3h-2.6v-8.3h-2.9v-2.4H-769.9z"/>
			<path class="st5" d="M-827.7-668.1c0.5,0,0.9,0,1.5-0.1c0.5-0.1,1-0.2,1.4-0.4v2.3c-0.6,0.2-1.2,0.4-1.7,0.5
				c-0.5,0.1-1,0.1-1.6,0.1c-1,0-1.8-0.1-2.4-0.3c-0.6-0.2-1.1-0.6-1.4-1.1c-0.3-0.4-0.5-1-0.7-1.7c-0.1-0.7-0.2-1.5-0.2-2.4
				c0-1.9,0.4-3.3,1.2-4.2c0.8-0.9,2.1-1.3,3.9-1.3c0.5,0,1,0,1.4,0c0.4,0,0.8,0.1,1.1,0.1v2.3c-0.4,0-0.8,0-1.2-0.1
				c-0.4,0-0.8,0-1.3,0c-0.6,0-1.1,0.1-1.4,0.2s-0.5,0.3-0.7,0.6c-0.1,0.2-0.2,0.5-0.3,0.9c-0.1,0.4-0.1,0.8-0.1,1.4
				c0,0.5,0,1,0.1,1.3c0.1,0.4,0.1,0.7,0.2,0.9c0.1,0.3,0.4,0.5,0.6,0.6S-828.3-668.1-827.7-668.1z"/>
			<path class="st5" d="M-814-671.1c0,1.9-0.4,3.3-1.2,4.2s-2.1,1.3-3.8,1.3c-1.8,0-3.1-0.4-3.9-1.2c-0.7-0.8-1.1-2.2-1.1-4.3
				c0-1.9,0.4-3.3,1.2-4.2s2.1-1.3,3.8-1.3c1.8,0,3.1,0.4,3.9,1.2C-814.4-674.6-814-673.1-814-671.1z M-821.1-668.8
				c0.1,0.3,0.4,0.5,0.7,0.6c0.3,0.1,0.7,0.2,1.4,0.2s1.1-0.1,1.4-0.2c0.3-0.1,0.5-0.3,0.7-0.6c0.1-0.2,0.2-0.5,0.2-0.9
				c0.1-0.4,0.1-0.8,0.1-1.4c0-0.6,0-1.1-0.1-1.4c-0.1-0.4-0.1-0.7-0.2-0.9c-0.1-0.3-0.3-0.5-0.6-0.6c-0.3-0.1-0.8-0.2-1.4-0.2
				c-0.6,0-1.1,0.1-1.4,0.2c-0.3,0.1-0.5,0.3-0.6,0.6c-0.1,0.2-0.2,0.5-0.2,0.9c-0.1,0.4-0.1,0.8-0.1,1.4c0,0.6,0,1,0.1,1.4
				S-821.2-669.1-821.1-668.8z"/>
			<path class="st5" d="M-803.6-676.4v10.7h-2.5l-4.2-6.2v6.2h-2.5v-10.7h2.5l4.2,6.4v-6.4H-803.6z"/>
			<path class="st5" d="M-794.1-676.4v2.4h-2.9v8.3h-2.6v-8.3h-2.9v-2.4H-794.1z"/>
			<path class="st5" d="M-790.4-669.2v3.4h-2.6v-10.7h3.9c1.6,0,2.8,0.3,3.5,0.8c0.7,0.6,1,1.5,1,2.8c0,0.9-0.2,1.6-0.6,2.1
				c-0.4,0.6-0.9,1-1.7,1.2l2.6,3.7h-3.2l-2.2-3.4H-790.4z M-787.3-672.8c0-0.5-0.1-0.8-0.4-1s-0.8-0.3-1.5-0.3h-1.3v2.7h1.3
				c0.7,0,1.2-0.1,1.5-0.3C-787.4-671.9-787.3-672.3-787.3-672.8z"/>
			<path class="st5" d="M-781.3-665.8h-2.8l3.9-10.7h2.7l3.8,10.7h-2.8l-0.6-1.8h-3.9L-781.3-665.8z M-778.8-673.8
				c-0.1,0.3-0.2,0.7-0.3,1s-0.3,0.9-0.5,1.7l-0.4,1.4h2.6l-0.4-1.4c-0.1-0.4-0.3-0.9-0.4-1.4C-778.6-672.9-778.7-673.4-778.8-673.8
				z"/>
			<path class="st5" d="M-768.1-668.1c0.5,0,0.9,0,1.5-0.1c0.5-0.1,1-0.2,1.4-0.4v2.3c-0.6,0.2-1.2,0.4-1.7,0.5
				c-0.5,0.1-1,0.1-1.6,0.1c-1,0-1.8-0.1-2.4-0.3c-0.6-0.2-1.1-0.6-1.4-1.1c-0.3-0.4-0.5-1-0.7-1.7c-0.1-0.7-0.2-1.5-0.2-2.4
				c0-1.9,0.4-3.3,1.2-4.2c0.8-0.9,2.1-1.3,3.9-1.3c0.5,0,1,0,1.4,0c0.4,0,0.8,0.1,1.1,0.1v2.3c-0.4,0-0.8,0-1.2-0.1
				c-0.4,0-0.8,0-1.3,0c-0.6,0-1.1,0.1-1.4,0.2s-0.5,0.3-0.7,0.6c-0.1,0.2-0.2,0.5-0.3,0.9c-0.1,0.4-0.1,0.8-0.1,1.4
				c0,0.5,0,1,0.1,1.3c0.1,0.4,0.1,0.7,0.2,0.9c0.1,0.3,0.4,0.5,0.6,0.6S-768.7-668.1-768.1-668.1z"/>
			<path class="st5" d="M-756.3-676.4v2.4h-2.9v8.3h-2.6v-8.3h-2.9v-2.4H-756.3z"/>
		</g>
	</g>
	<g>
		<g>
			<path class="st1" d="M-822.6-609.4l-2-0.5c-0.8-0.2-1.3-0.5-1.6-0.9c-0.3-0.4-0.4-0.9-0.4-1.6c0-1.1,0.3-2,0.9-2.5
				c0.6-0.5,1.5-0.8,2.8-0.8c0.5,0,1,0,1.4,0.1s0.8,0.1,1.1,0.2v2.2c-0.8-0.1-1.3-0.2-1.6-0.2c-0.3,0-0.6,0-0.9,0
				c-0.4,0-0.7,0.1-0.9,0.2c-0.2,0.1-0.3,0.4-0.3,0.7c0,0.2,0,0.3,0.1,0.4c0.1,0.1,0.2,0.2,0.4,0.2l1.9,0.4c0.5,0.1,0.9,0.2,1.2,0.4
				c0.2,0.1,0.4,0.3,0.6,0.5c0.2,0.2,0.3,0.4,0.4,0.8c0.1,0.3,0.1,0.7,0.1,1.1c0,1.1-0.3,1.9-0.9,2.4c-0.6,0.5-1.5,0.8-2.8,0.8
				c-0.6,0-1.2,0-1.8-0.1c-0.6-0.1-1-0.2-1.3-0.3v-2.3c0.4,0.1,0.9,0.2,1.5,0.3s1.1,0.1,1.7,0.1c0.5,0,0.8-0.1,0.9-0.2
				c0.2-0.1,0.3-0.3,0.3-0.7c0-0.2,0-0.4-0.1-0.5C-822.3-609.3-822.4-609.4-822.6-609.4z"/>
			<path class="st1" d="M-811.6-615.5v2.2h-2.6v7.5h-2.4v-7.5h-2.6v-2.2H-811.6z"/>
			<path class="st1" d="M-808.9-605.8h-2.5l3.6-9.7h2.5l3.5,9.7h-2.5l-0.5-1.6h-3.5L-808.9-605.8z M-806.7-613.1
				c-0.1,0.3-0.2,0.6-0.3,0.9s-0.3,0.9-0.5,1.6l-0.4,1.3h2.3l-0.4-1.3c-0.1-0.4-0.3-0.8-0.4-1.2S-806.5-612.7-806.7-613.1z"/>
			<path class="st1" d="M-798.7-608.9v3.1h-2.4v-9.7h3.5c1.5,0,2.6,0.3,3.2,0.8c0.6,0.5,0.9,1.3,0.9,2.5c0,0.8-0.2,1.4-0.5,1.9
				c-0.3,0.5-0.8,0.9-1.5,1.1l2.4,3.4h-2.9l-2-3.1H-798.7z M-795.9-612.2c0-0.4-0.1-0.7-0.4-0.9c-0.2-0.2-0.7-0.2-1.3-0.2h-1.1v2.5
				h1.1c0.6,0,1.1-0.1,1.3-0.3C-796-611.4-795.9-611.7-795.9-612.2z"/>
			<path class="st1" d="M-785-615.5v2.2h-2.6v7.5h-2.4v-7.5h-2.6v-2.2H-785z"/>
			<path class="st1" d="M-781.7-615.5v9.7h-2.4v-9.7H-781.7z"/>
			<path class="st1" d="M-771.9-615.5v9.7h-2.3l-3.8-5.6v5.6h-2.2v-9.7h2.3l3.9,5.8v-5.8H-771.9z"/>
			<path class="st1" d="M-764.9-609.4h-1.7v-1.9h3.9v5.1c-0.3,0.1-0.8,0.3-1.5,0.4c-0.7,0.1-1.4,0.2-2,0.2c-1.7,0-2.9-0.4-3.5-1.2
				c-0.7-0.8-1-2.1-1-3.9c0-1.7,0.4-3,1.1-3.8c0.8-0.8,2-1.2,3.7-1.2c0.6,0,1.2,0,1.6,0s0.8,0.1,1.1,0.1v2.1c-0.3,0-0.7-0.1-1.2-0.1
				c-0.5,0-1,0-1.5,0c-0.6,0-1,0.1-1.3,0.2c-0.3,0.1-0.5,0.3-0.6,0.5c-0.1,0.2-0.2,0.5-0.3,0.8s-0.1,0.8-0.1,1.3
				c0,0.5,0,0.9,0.1,1.3c0.1,0.3,0.1,0.6,0.2,0.8c0.1,0.3,0.3,0.5,0.6,0.6c0.3,0.1,0.7,0.2,1.2,0.2c0.2,0,0.4,0,0.6,0
				c0.2,0,0.4,0,0.6-0.1V-609.4z"/>
		</g>
	</g>
</g>
<g>
</g>
<g>
</g>
<g>
</g>
<g>
</g>
<g>
</g>
<g>
</g>
<g>
</g>
<g>
</g>
<g>
</g>
<g>
</g>
<g>
</g>
<g>
</g>
<g>
</g>
<g>
</g>
<g>
</g>
</svg>
