<?xml version="1.0" encoding="utf-8"?>
<!-- Generator: Adobe Illustrator 25.4.1, SVG Export Plug-In . SVG Version: 6.00 Build 0)  -->
<svg version="1.1" id="Layer_1" xmlns="http://www.w3.org/2000/svg" xmlns:xlink="http://www.w3.org/1999/xlink" x="0px" y="0px"
	 viewBox="0 0 104.6 153.8" style="enable-background:new 0 0 104.6 153.8;" xml:space="preserve">
<style type="text/css">
	.st0{fill:#C6099A;}
	.st1{fill:#FFFFFF;}
	.st2{fill:#E9ECEC;}
	.st3{fill:url(#SVGID_1_);}
	.st4{fill:url(#SVGID_00000025431653470331437580000002199672590378013879_);}
	.st5{fill:#010628;}
	.st6{fill:url(#SVGID_00000128468628327300826110000011528379655749675697_);}
	.st7{fill:url(#SVGID_00000080173251753474024970000001005280260794016184_);}
	.st8{fill:url(#SVGID_00000093175518024887114040000002779103346982139317_);}
	.st9{fill:url(#SVGID_00000008145136484559792220000014534568027507328172_);}
</style>
<g>
	<polygon class="st0" points="0,127.4 9.5,121.4 9.5,131.5 	"/>
	<polygon class="st0" points="104.6,127.4 95.1,121.4 95.1,131.5 	"/>
	<path class="st1" d="M89.5,131.5H16.5c-3.9,0-7-3.1-7-7V19.4h85.6v106.5C95.1,129,92.6,131.5,89.5,131.5z"/>
	<path class="st2" d="M87.7,118.6L87.7,118.6c0,2.8-2.3,5.2-5.2,5.2H22c-2.8,0-5.2-2.3-5.2-5.2l0,0c0-0.8-0.7-1.5-1.5-1.5H9.5v10.5
		c0,2.1,1.7,3.9,3.9,3.9h77.9c2.1,0,3.9-1.7,3.9-3.9v-10.5h-5.9C88.4,117.1,87.7,117.8,87.7,118.6z"/>
	<linearGradient id="SVGID_1_" gradientUnits="userSpaceOnUse" x1="9.4798" y1="14.2148" x2="95.0731" y2="14.2148">
		<stop  offset="0" style="stop-color:#F93DF9"/>
		<stop  offset="0.9674" style="stop-color:#FF14BF"/>
		<stop  offset="1" style="stop-color:#FF13BD"/>
	</linearGradient>
	<path class="st3" d="M87.7,26.9L87.7,26.9c0-2.8-2.3-5.2-5.2-5.2H22c-2.8,0-5.2,2.3-5.2,5.2l0,0c0,0.8-0.7,1.5-1.5,1.5H9.5V3.9
		c0-2.1,1.7-3.9,3.9-3.9h77.9c2.1,0,3.9,1.7,3.9,3.9v24.6h-5.9C88.4,28.4,87.7,27.8,87.7,26.9z"/>
	
		<linearGradient id="SVGID_00000060016068950215864240000009066648913360134026_" gradientUnits="userSpaceOnUse" x1="-1017.8519" y1="11134.3818" x2="-1017.8519" y2="11108.2383" gradientTransform="matrix(-1 0 0 -1 -965.5755 11261.833)">
		<stop  offset="0" style="stop-color:#F93DF9"/>
		<stop  offset="0.9674" style="stop-color:#FF14BF"/>
		<stop  offset="1" style="stop-color:#FF13BD"/>
	</linearGradient>
	<path style="fill:url(#SVGID_00000060016068950215864240000009066648913360134026_);" d="M0,127.4h104.6v21.8c0,2.5-2,4.6-4.6,4.6
		H4.6c-2.5,0-4.6-2-4.6-4.6V127.4z"/>
	<g>
		<path class="st1" d="M33.4,12.8V7h2.5v5.8c0,1.5-0.4,2.5-1.1,3.3c-0.7,0.7-1.8,1.1-3.2,1.1c-1.5,0-2.6-0.3-3.3-1
			c-0.7-0.7-1-1.8-1-3.3V7h2.5v5.8c0,0.8,0.1,1.4,0.4,1.6c0.2,0.3,0.7,0.4,1.5,0.4c0.7,0,1.2-0.1,1.4-0.4S33.4,13.6,33.4,12.8z"/>
		<path class="st1" d="M44.6,7v2.2h-2.7V17h-2.5V9.3h-2.7V7H44.6z"/>
		<path class="st1" d="M48,7v10h-2.5V7H48z"/>
		<path class="st1" d="M55.9,14.7V17h-6.4V7H52v7.7H55.9z"/>
		<path class="st1" d="M59.4,7v10h-2.5V7H59.4z"/>
		<path class="st1" d="M68.3,7v2.2h-2.7V17h-2.5V9.3h-2.7V7H68.3z"/>
		<path class="st1" d="M75.4,7H78l-3.5,6.4V17H72v-3.6L68.4,7h2.8l2,4.2L75.4,7z"/>
	</g>
	<g>
		<path class="st5" d="M32.2,68.4l-2.2-0.5c-0.9-0.2-1.4-0.5-1.8-0.9c-0.3-0.4-0.5-1-0.5-1.8c0-1.2,0.3-2.1,1-2.7
			c0.7-0.6,1.7-0.9,3-0.9c0.6,0,1.1,0,1.5,0.1c0.4,0,0.9,0.1,1.2,0.2v2.4c-0.9-0.1-1.5-0.2-1.8-0.3c-0.3,0-0.7,0-1,0
			c-0.5,0-0.8,0.1-1,0.2c-0.2,0.2-0.3,0.4-0.3,0.8c0,0.2,0,0.3,0.1,0.4s0.2,0.2,0.4,0.2l2,0.5c0.6,0.1,1,0.3,1.3,0.4
			c0.3,0.1,0.5,0.3,0.6,0.5c0.2,0.2,0.3,0.5,0.4,0.8c0.1,0.3,0.1,0.8,0.1,1.2c0,1.2-0.3,2.1-1,2.7c-0.7,0.6-1.7,0.8-3.1,0.8
			c-0.7,0-1.4,0-2-0.1c-0.6-0.1-1.1-0.2-1.5-0.3v-2.5c0.5,0.1,1,0.3,1.6,0.3c0.6,0.1,1.2,0.1,1.9,0.1c0.5,0,0.8-0.1,1-0.2
			c0.2-0.1,0.3-0.4,0.3-0.7c0-0.2,0-0.4-0.1-0.5C32.5,68.5,32.4,68.4,32.2,68.4z"/>
		<path class="st5" d="M47.2,61.7v10.7h-2.5V66l-1.8,4.4h-2.1L39,66v6.4h-2.5V61.7h3.2l2.2,5.4l2.2-5.4H47.2z"/>
		<path class="st5" d="M50.7,72.4h-2.8l3.9-10.7h2.7l3.8,10.7h-2.8l-0.6-1.8h-3.9L50.7,72.4z M53.2,64.3c-0.1,0.3-0.2,0.7-0.3,1
			c-0.1,0.4-0.3,0.9-0.5,1.7l-0.4,1.4h2.6L54,67.1c-0.1-0.4-0.3-0.9-0.4-1.4C53.5,65.2,53.3,64.8,53.2,64.3z"/>
		<path class="st5" d="M61.9,68.9v3.4h-2.6V61.7h3.9c1.6,0,2.8,0.3,3.5,0.8c0.7,0.6,1,1.5,1,2.8c0,0.9-0.2,1.6-0.6,2.1
			c-0.4,0.6-0.9,1-1.7,1.2l2.6,3.7h-3.2l-2.2-3.4H61.9z M65,65.3c0-0.5-0.1-0.8-0.4-1s-0.8-0.3-1.5-0.3h-1.3v2.7h1.3
			c0.7,0,1.2-0.1,1.5-0.3C64.9,66.3,65,65.9,65,65.3z"/>
		<path class="st5" d="M76.9,61.7v2.4H74v8.3h-2.6v-8.3h-2.9v-2.4H76.9z"/>
		<path class="st5" d="M19.1,84.6c0.5,0,0.9,0,1.5-0.1c0.5-0.1,1-0.2,1.4-0.4v2.3c-0.6,0.2-1.2,0.4-1.7,0.5c-0.5,0.1-1,0.1-1.6,0.1
			c-1,0-1.8-0.1-2.4-0.3c-0.6-0.2-1.1-0.6-1.4-1.1c-0.3-0.4-0.5-1-0.7-1.7c-0.1-0.7-0.2-1.5-0.2-2.4c0-1.9,0.4-3.3,1.2-4.2
			c0.8-0.9,2.1-1.3,3.9-1.3c0.5,0,1,0,1.4,0s0.8,0.1,1.1,0.1v2.3c-0.4,0-0.8,0-1.2-0.1c-0.4,0-0.8,0-1.3,0c-0.6,0-1.1,0.1-1.4,0.2
			s-0.5,0.3-0.7,0.6c-0.1,0.2-0.2,0.5-0.3,0.9c-0.1,0.4-0.1,0.8-0.1,1.4c0,0.5,0,1,0.1,1.3c0.1,0.4,0.1,0.7,0.2,0.9
			c0.1,0.3,0.4,0.5,0.6,0.6C18.1,84.5,18.6,84.6,19.1,84.6z"/>
		<path class="st5" d="M32.8,81.5c0,1.9-0.4,3.3-1.2,4.2c-0.8,0.9-2.1,1.3-3.8,1.3c-1.8,0-3.1-0.4-3.9-1.2c-0.7-0.8-1.1-2.2-1.1-4.3
			c0-1.9,0.4-3.3,1.2-4.2c0.8-0.9,2.1-1.3,3.8-1.3c1.8,0,3.1,0.4,3.9,1.2C32.5,78.1,32.8,79.5,32.8,81.5z M25.8,83.8
			c0.1,0.3,0.4,0.5,0.7,0.6s0.7,0.2,1.4,0.2s1.1-0.1,1.4-0.2c0.3-0.1,0.5-0.3,0.7-0.6c0.1-0.2,0.2-0.5,0.2-0.9s0.1-0.8,0.1-1.4
			c0-0.6,0-1.1-0.1-1.4c-0.1-0.4-0.1-0.7-0.2-0.9c-0.1-0.3-0.3-0.5-0.6-0.6s-0.8-0.2-1.4-0.2c-0.6,0-1.1,0.1-1.4,0.2
			c-0.3,0.1-0.5,0.3-0.6,0.6c-0.1,0.2-0.2,0.5-0.2,0.9c-0.1,0.4-0.1,0.8-0.1,1.4c0,0.6,0,1,0.1,1.4C25.6,83.3,25.7,83.6,25.8,83.8z"
			/>
		<path class="st5" d="M43.3,76.2v10.7h-2.5l-4.2-6.2v6.2h-2.5V76.2h2.5l4.2,6.4v-6.4H43.3z"/>
		<path class="st5" d="M52.8,76.2v2.4h-2.9v8.3h-2.6v-8.3h-2.9v-2.4H52.8z"/>
		<path class="st5" d="M56.5,83.4v3.4h-2.6V76.2h3.9c1.6,0,2.8,0.3,3.5,0.8c0.7,0.6,1,1.5,1,2.8c0,0.9-0.2,1.6-0.6,2.1
			c-0.4,0.6-0.9,1-1.7,1.2l2.6,3.7h-3.2l-2.2-3.4H56.5z M59.6,79.8c0-0.5-0.1-0.8-0.4-1s-0.8-0.3-1.5-0.3h-1.3v2.7h1.3
			c0.7,0,1.2-0.1,1.5-0.3C59.5,80.8,59.6,80.4,59.6,79.8z"/>
		<path class="st5" d="M65.5,86.9h-2.8l3.9-10.7h2.7l3.8,10.7h-2.8L70,85.1h-3.9L65.5,86.9z M68,78.8c-0.1,0.3-0.2,0.7-0.3,1
			c-0.1,0.4-0.3,0.9-0.5,1.7L66.8,83h2.6l-0.4-1.4c-0.1-0.4-0.3-0.9-0.4-1.4C68.3,79.7,68.2,79.3,68,78.8z"/>
		<path class="st5" d="M78.7,84.6c0.5,0,0.9,0,1.5-0.1c0.5-0.1,1-0.2,1.4-0.4v2.3c-0.6,0.2-1.2,0.4-1.7,0.5c-0.5,0.1-1,0.1-1.6,0.1
			c-1,0-1.8-0.1-2.4-0.3c-0.6-0.2-1.1-0.6-1.4-1.1c-0.3-0.4-0.5-1-0.7-1.7c-0.1-0.7-0.2-1.5-0.2-2.4c0-1.9,0.4-3.3,1.2-4.2
			c0.8-0.9,2.1-1.3,3.9-1.3c0.5,0,1,0,1.4,0c0.4,0,0.8,0.1,1.1,0.1v2.3c-0.4,0-0.8,0-1.2-0.1c-0.4,0-0.8,0-1.3,0
			c-0.6,0-1.1,0.1-1.4,0.2s-0.5,0.3-0.7,0.6c-0.1,0.2-0.2,0.5-0.3,0.9c-0.1,0.4-0.1,0.8-0.1,1.4c0,0.5,0,1,0.1,1.3s0.1,0.7,0.2,0.9
			c0.1,0.3,0.4,0.5,0.6,0.6C77.7,84.5,78.2,84.6,78.7,84.6z"/>
		<path class="st5" d="M90.6,76.2v2.4h-2.9v8.3H85v-8.3h-2.9v-2.4H90.6z"/>
	</g>
	<g>
		<g>
			<path class="st1" d="M12,143l-1.4-0.3c-0.6-0.1-0.9-0.3-1.1-0.6s-0.3-0.7-0.3-1.2c0-0.8,0.2-1.4,0.6-1.8c0.4-0.4,1.1-0.6,2-0.6
				c0.4,0,0.7,0,1,0c0.3,0,0.6,0.1,0.8,0.2v1.5c-0.6-0.1-0.9-0.2-1.2-0.2c-0.2,0-0.4,0-0.7,0c-0.3,0-0.5,0.1-0.7,0.2
				c-0.1,0.1-0.2,0.3-0.2,0.5c0,0.1,0,0.2,0.1,0.3s0.1,0.1,0.3,0.1l1.3,0.3c0.4,0.1,0.7,0.2,0.8,0.3c0.2,0.1,0.3,0.2,0.4,0.3
				c0.1,0.1,0.2,0.3,0.3,0.5c0.1,0.2,0.1,0.5,0.1,0.8c0,0.8-0.2,1.4-0.6,1.7c-0.4,0.4-1.1,0.5-2,0.5c-0.5,0-0.9,0-1.3-0.1
				c-0.4-0.1-0.7-0.1-1-0.2v-1.6c0.3,0.1,0.6,0.2,1,0.2c0.4,0.1,0.8,0.1,1.2,0.1c0.3,0,0.5,0,0.7-0.1s0.2-0.2,0.2-0.5
				c0-0.2,0-0.3-0.1-0.3C12.2,143.1,12.1,143.1,12,143z"/>
			<path class="st1" d="M19.9,138.7v1.5H18v5.4h-1.7v-5.4h-1.9v-1.5H19.9z"/>
			<path class="st1" d="M21.8,145.6H20l2.6-6.9h1.8l2.5,6.9H25l-0.4-1.2h-2.5L21.8,145.6z M23.4,140.4c-0.1,0.2-0.1,0.4-0.2,0.7
				c-0.1,0.2-0.2,0.6-0.3,1.1l-0.3,0.9h1.7l-0.3-0.9c-0.1-0.3-0.2-0.6-0.3-0.9C23.5,141,23.5,140.7,23.4,140.4z"/>
			<path class="st1" d="M29,143.4v2.2h-1.7v-6.9h2.5c1.1,0,1.8,0.2,2.3,0.5s0.7,1,0.7,1.8c0,0.6-0.1,1-0.4,1.4
				c-0.2,0.4-0.6,0.6-1.1,0.8l1.7,2.4H31l-1.4-2.2H29z M31.1,141c0-0.3-0.1-0.5-0.3-0.6c-0.2-0.1-0.5-0.2-0.9-0.2H29v1.8h0.8
				c0.5,0,0.8-0.1,0.9-0.2C31,141.6,31.1,141.4,31.1,141z"/>
			<path class="st1" d="M38.8,138.7v1.5h-1.9v5.4h-1.7v-5.4h-1.9v-1.5H38.8z"/>
			<path class="st1" d="M41.1,138.7v6.9h-1.7v-6.9H41.1z"/>
			<path class="st1" d="M48.1,138.7v6.9h-1.6l-2.7-4v4h-1.6v-6.9h1.6l2.7,4.1v-4.1H48.1z"/>
			<path class="st1" d="M53.1,143h-1.2v-1.4h2.8v3.6c-0.2,0.1-0.6,0.2-1.1,0.3s-1,0.1-1.4,0.1c-1.2,0-2-0.3-2.5-0.8
				c-0.5-0.6-0.7-1.5-0.7-2.7c0-1.2,0.3-2.1,0.8-2.7s1.4-0.9,2.6-0.9c0.4,0,0.8,0,1.2,0c0.3,0,0.6,0,0.8,0.1v1.5c-0.2,0-0.5,0-0.9,0
				c-0.3,0-0.7,0-1.1,0c-0.4,0-0.7,0-0.9,0.1c-0.2,0.1-0.4,0.2-0.5,0.4c-0.1,0.1-0.2,0.3-0.2,0.6c0,0.2-0.1,0.6-0.1,0.9
				c0,0.4,0,0.7,0.1,0.9s0.1,0.4,0.2,0.6c0.1,0.2,0.2,0.3,0.4,0.4c0.2,0.1,0.5,0.1,0.9,0.1c0.1,0,0.3,0,0.4,0c0.1,0,0.3,0,0.4,0V143
				z"/>
			<path class="st1" d="M62.3,143.7c0,0.7-0.2,1.2-0.5,1.5c-0.4,0.3-1,0.4-1.8,0.4h-2.3v-6.9H60c0.8,0,1.3,0.1,1.6,0.4
				c0.3,0.2,0.5,0.7,0.5,1.3c0,0.5-0.1,0.8-0.3,1.1c-0.2,0.3-0.5,0.4-0.9,0.5c0.5,0,0.8,0.2,1.1,0.5
				C62.2,142.7,62.3,143.1,62.3,143.7z M61.6,140.4c0-0.5-0.1-0.8-0.4-1c-0.2-0.2-0.7-0.3-1.3-0.3h-1.9v2.7H60c0.6,0,1-0.1,1.3-0.3
				S61.6,140.9,61.6,140.4z M61.9,143.6c0-0.6-0.1-0.9-0.4-1.1c-0.3-0.2-0.8-0.3-1.5-0.3h-1.9v3H60c0.7,0,1.2-0.1,1.5-0.4
				S61.9,144.2,61.9,143.6z"/>
			<path class="st1" d="M64.3,142.9v2.7h-0.4v-6.9h2.2c0.9,0,1.6,0.2,2,0.5c0.4,0.3,0.6,0.8,0.6,1.6c0,0.6-0.1,1.1-0.4,1.5
				s-0.7,0.6-1.3,0.7l1.9,2.7h-0.5l-1.9-2.7c0,0-0.1,0-0.1,0s-0.1,0-0.2,0H64.3z M68.3,140.7c0-0.6-0.2-1-0.5-1.3s-0.9-0.4-1.7-0.4
				h-1.8v3.5h1.8c0.8,0,1.3-0.1,1.7-0.4C68.1,141.8,68.3,141.4,68.3,140.7z"/>
			<path class="st1" d="M70,145.6h-0.4l2.9-6.9h0.4l2.8,6.9h-0.4l-0.8-2h-3.6L70,145.6z M72.6,139.1c-0.1,0.2-0.1,0.4-0.2,0.6
				s-0.2,0.5-0.4,0.9l-1.1,2.6h3.3l-1.1-2.6c-0.2-0.4-0.3-0.7-0.4-1C72.7,139.3,72.6,139.2,72.6,139.1z"/>
			<path class="st1" d="M82.3,138.7v6.9h-0.5l-4.6-6.3v6.3h-0.4v-6.9h0.5l4.6,6.3v-6.3H82.3z"/>
			<path class="st1" d="M85.9,145.6h-1.7v-6.9h1.7c0.7,0,1.3,0.1,1.7,0.2s0.8,0.3,1,0.6c0.2,0.3,0.4,0.6,0.5,1s0.2,1,0.2,1.7
				c0,1.2-0.3,2.1-0.8,2.6C88,145.3,87.1,145.6,85.9,145.6z M88.3,139.7c-0.2-0.2-0.5-0.4-0.9-0.5c-0.4-0.1-0.9-0.2-1.5-0.2h-1.3
				v6.1h1.3c1.1,0,1.8-0.2,2.3-0.7c0.5-0.5,0.7-1.3,0.7-2.4c0-0.6,0-1.1-0.1-1.5C88.7,140.3,88.5,140,88.3,139.7z"/>
			<path class="st1" d="M93.7,142.5l-1.9-0.4c-0.4-0.1-0.7-0.3-0.9-0.5s-0.3-0.6-0.3-1c0-0.7,0.2-1.1,0.6-1.4c0.4-0.3,1-0.4,1.8-0.4
				c0.3,0,0.6,0,0.9,0c0.3,0,0.5,0.1,0.8,0.1v0.4c-0.2-0.1-0.5-0.1-0.8-0.1s-0.6,0-0.9,0c-0.7,0-1.2,0.1-1.5,0.3
				c-0.3,0.2-0.5,0.6-0.5,1.1c0,0.4,0.1,0.6,0.2,0.8c0.2,0.2,0.4,0.3,0.7,0.4l1.9,0.5c0.5,0.1,0.9,0.3,1.1,0.5
				c0.2,0.2,0.3,0.6,0.3,1.1c0,0.7-0.2,1.2-0.6,1.5c-0.4,0.3-1,0.4-1.8,0.4c-0.4,0-0.9,0-1.3-0.1c-0.4-0.1-0.8-0.1-1-0.2V145
				c0.4,0.1,0.7,0.2,1.1,0.2s0.8,0.1,1.2,0.1c0.7,0,1.2-0.1,1.5-0.3s0.4-0.6,0.4-1.3c0-0.4-0.1-0.6-0.2-0.8
				C94.4,142.7,94.1,142.6,93.7,142.5z"/>
		</g>
	</g>
</g>
<g>
	<polygon class="st0" points="-992.7,-624.6 -983.2,-630.6 -983.2,-620.5 	"/>
	<polygon class="st0" points="-888.1,-624.6 -897.6,-630.6 -897.6,-620.5 	"/>
	<path class="st1" d="M-903.2-620.5h-72.9c-3.9,0-7-3.1-7-7v-105.1h85.6v106.5C-897.6-623-900.1-620.5-903.2-620.5z"/>
	<path class="st2" d="M-905-633.4L-905-633.4c0,2.8-2.3,5.2-5.2,5.2h-60.5c-2.8,0-5.2-2.3-5.2-5.2l0,0c0-0.8-0.7-1.5-1.5-1.5h-5.9
		v10.5c0,2.1,1.7,3.9,3.9,3.9h77.9c2.1,0,3.9-1.7,3.9-3.9v-10.5h-5.9C-904.3-634.9-905-634.2-905-633.4z"/>
	
		<linearGradient id="SVGID_00000066478805091644275780000012077038974583563665_" gradientUnits="userSpaceOnUse" x1="-983.2056" y1="-737.7852" x2="-897.6122" y2="-737.7852">
		<stop  offset="0" style="stop-color:#F93DF9"/>
		<stop  offset="0.9674" style="stop-color:#FF14BF"/>
		<stop  offset="1" style="stop-color:#FF13BD"/>
	</linearGradient>
	<path style="fill:url(#SVGID_00000066478805091644275780000012077038974583563665_);" d="M-905-725.1L-905-725.1
		c0-2.8-2.3-5.2-5.2-5.2h-60.5c-2.8,0-5.2,2.3-5.2,5.2l0,0c0,0.8-0.7,1.5-1.5,1.5h-5.9v-24.6c0-2.1,1.7-3.9,3.9-3.9h77.9
		c2.1,0,3.9,1.7,3.9,3.9v24.6h-5.9C-904.3-723.6-905-724.2-905-725.1z"/>
	
		<linearGradient id="SVGID_00000096024856536437311760000005648378322191510672_" gradientUnits="userSpaceOnUse" x1="-25.1666" y1="11886.3818" x2="-25.1666" y2="11860.2383" gradientTransform="matrix(-1 0 0 -1 -965.5755 11261.833)">
		<stop  offset="0" style="stop-color:#F93DF9"/>
		<stop  offset="0.9674" style="stop-color:#FF14BF"/>
		<stop  offset="1" style="stop-color:#FF13BD"/>
	</linearGradient>
	<path style="fill:url(#SVGID_00000096024856536437311760000005648378322191510672_);" d="M-992.7-624.6h104.6v21.8
		c0,2.5-2,4.6-4.6,4.6h-95.4c-2.5,0-4.6-2-4.6-4.6V-624.6z"/>
	<g>
		<path class="st1" d="M-947.7-735h-2.5v-7.8l-2.4,0.3v-2.1l4.8-0.6V-735z"/>
		<path class="st1" d="M-938.2-740c0,1.9-0.3,3.2-0.9,4c-0.6,0.8-1.6,1.2-3.1,1.2c-0.9,0-1.7-0.1-2.2-0.3c-0.5-0.2-0.9-0.6-1.2-1.1
			c-0.2-0.4-0.4-0.9-0.5-1.5c-0.1-0.6-0.2-1.4-0.2-2.3c0-1.9,0.3-3.2,0.9-4s1.6-1.2,3.1-1.2c0.9,0,1.7,0.1,2.2,0.3
			c0.5,0.2,0.9,0.6,1.2,1.1c0.2,0.4,0.4,0.9,0.5,1.5C-938.3-741.7-938.2-740.9-938.2-740z M-940.8-740c0-1.2-0.1-2-0.3-2.4
			c-0.2-0.4-0.6-0.5-1.2-0.5s-1.1,0.2-1.2,0.6c-0.2,0.4-0.3,1.2-0.3,2.4c0,1.2,0.1,1.9,0.3,2.3c0.2,0.4,0.6,0.5,1.2,0.5
			s1-0.2,1.2-0.5C-940.8-738-940.8-738.8-940.8-740z"/>
		<path class="st1" d="M-931.8-740.1l3.7,5.1h-3.1l-2.7-4.1h-0.7v4.1h-2.5v-10h2.5v3.9h0.7l2.8-3.9h3L-931.8-740.1z"/>
	</g>
	<g>
		<g>
			<path class="st5" d="M-972.2-673.3h-2.8l3.9-10.7h2.7l3.8,10.7h-2.8l-0.6-1.8h-3.9L-972.2-673.3z M-969.7-681.4
				c-0.1,0.3-0.2,0.7-0.3,1s-0.3,0.9-0.5,1.7l-0.4,1.4h2.6l-0.4-1.4c-0.1-0.4-0.3-0.9-0.4-1.4C-969.4-680.5-969.5-680.9-969.7-681.4
				z"/>
			<path class="st5" d="M-960.8-673.3l-3.7-10.7h2.9l1.6,5.3c0.1,0.4,0.2,0.8,0.4,1.4c0.1,0.6,0.3,1.2,0.4,1.7
				c0.2-1,0.4-1.8,0.5-2.2s0.2-0.7,0.2-1l1.6-5.3h2.9l-3.7,10.7H-960.8z"/>
			<path class="st5" d="M-951.2-673.3h-2.8l3.9-10.7h2.7l3.8,10.7h-2.8l-0.6-1.8h-3.9L-951.2-673.3z M-948.7-681.4
				c-0.1,0.3-0.2,0.7-0.3,1s-0.3,0.9-0.5,1.7l-0.4,1.4h2.6l-0.4-1.4c-0.1-0.4-0.3-0.9-0.4-1.4C-948.5-680.5-948.6-680.9-948.7-681.4
				z"/>
			<path class="st5" d="M-934.8-684v2.4h-2.9v8.3h-2.6v-8.3h-2.9v-2.4H-934.8z"/>
			<path class="st5" d="M-931.9-673.3h-2.8l3.9-10.7h2.7l3.8,10.7h-2.8l-0.6-1.8h-3.9L-931.9-673.3z M-929.4-681.4
				c-0.1,0.3-0.2,0.7-0.3,1s-0.3,0.9-0.5,1.7l-0.4,1.4h2.6l-0.4-1.4c-0.1-0.4-0.3-0.9-0.4-1.4C-929.1-680.5-929.3-680.9-929.4-681.4
				z"/>
			<path class="st5" d="M-920.7-676.8v3.4h-2.6V-684h3.9c1.6,0,2.8,0.3,3.5,0.8c0.7,0.6,1,1.5,1,2.8c0,0.9-0.2,1.6-0.6,2.1
				c-0.4,0.6-0.9,1-1.7,1.2l2.6,3.7h-3.2l-2.2-3.4H-920.7z M-917.6-680.4c0-0.5-0.1-0.8-0.4-1s-0.8-0.3-1.5-0.3h-1.3v2.7h1.3
				c0.7,0,1.2-0.1,1.5-0.3C-917.7-679.4-917.6-679.8-917.6-680.4z"/>
			<path class="st5" d="M-909.5-677.3l-2.2-0.5c-0.9-0.2-1.4-0.5-1.8-0.9s-0.5-1-0.5-1.8c0-1.2,0.3-2.1,1-2.7c0.7-0.6,1.7-0.9,3-0.9
				c0.6,0,1.1,0,1.5,0.1c0.4,0,0.9,0.1,1.2,0.2v2.4c-0.9-0.1-1.5-0.2-1.8-0.3c-0.3,0-0.7,0-1,0c-0.5,0-0.8,0.1-1,0.2
				c-0.2,0.2-0.3,0.4-0.3,0.8c0,0.2,0,0.3,0.1,0.4c0.1,0.1,0.2,0.2,0.4,0.2l2,0.5c0.6,0.1,1,0.3,1.3,0.4c0.3,0.1,0.5,0.3,0.6,0.5
				c0.2,0.2,0.3,0.5,0.4,0.8c0.1,0.3,0.1,0.8,0.1,1.2c0,1.2-0.3,2.1-1,2.7c-0.7,0.6-1.7,0.8-3.1,0.8c-0.7,0-1.4,0-2-0.1
				c-0.6-0.1-1.1-0.2-1.5-0.3v-2.5c0.5,0.1,1,0.3,1.6,0.3c0.6,0.1,1.2,0.1,1.9,0.1c0.5,0,0.8-0.1,1-0.2c0.2-0.1,0.3-0.4,0.3-0.7
				c0-0.2,0-0.4-0.1-0.5C-909.2-677.2-909.3-677.3-909.5-677.3z"/>
		</g>
	</g>
	<g>
		<g>
			<path class="st1" d="M-975.3-607.9c0.4,0,0.9,0,1.3-0.1s0.9-0.2,1.3-0.3v2.1c-0.6,0.2-1.1,0.4-1.5,0.5c-0.5,0.1-0.9,0.1-1.4,0.1
				c-0.9,0-1.6-0.1-2.2-0.3c-0.5-0.2-1-0.5-1.3-1c-0.3-0.4-0.5-0.9-0.6-1.5c-0.1-0.6-0.2-1.3-0.2-2.2c0-1.7,0.4-3,1.1-3.8
				c0.7-0.8,1.9-1.2,3.6-1.2c0.5,0,0.9,0,1.3,0c0.4,0,0.7,0.1,1,0.1v2.1c-0.3,0-0.7,0-1.1,0c-0.4,0-0.8,0-1.2,0
				c-0.6,0-1,0.1-1.3,0.2s-0.5,0.3-0.6,0.6c-0.1,0.2-0.2,0.5-0.3,0.8s-0.1,0.8-0.1,1.3c0,0.5,0,0.9,0.1,1.2s0.1,0.6,0.2,0.8
				c0.1,0.3,0.3,0.5,0.6,0.6C-976.2-607.9-975.8-607.9-975.3-607.9z"/>
			<path class="st1" d="M-962.8-610.7c0,1.8-0.4,3-1.1,3.8c-0.7,0.8-1.9,1.2-3.5,1.2c-1.7,0-2.9-0.4-3.5-1.1c-0.7-0.7-1-2-1-3.9
				c0-1.8,0.4-3,1.1-3.8c0.7-0.8,1.9-1.2,3.5-1.2c1.7,0,2.9,0.4,3.5,1.1C-963.1-613.8-962.8-612.5-962.8-610.7z M-969.2-608.6
				c0.1,0.3,0.3,0.4,0.6,0.5c0.3,0.1,0.7,0.2,1.2,0.2c0.6,0,1-0.1,1.2-0.2c0.3-0.1,0.5-0.3,0.6-0.5c0.1-0.2,0.2-0.5,0.2-0.8
				c0-0.3,0.1-0.8,0.1-1.3c0-0.5,0-1-0.1-1.3c0-0.3-0.1-0.6-0.2-0.8c-0.1-0.3-0.3-0.5-0.6-0.6s-0.7-0.2-1.3-0.2
				c-0.6,0-1,0.1-1.3,0.2c-0.3,0.1-0.5,0.3-0.6,0.6c-0.1,0.2-0.2,0.5-0.2,0.8c0,0.3-0.1,0.8-0.1,1.3c0,0.5,0,0.9,0.1,1.3
				C-969.4-609.1-969.3-608.8-969.2-608.6z"/>
			<path class="st1" d="M-955.4-608v2.2h-6.2v-9.7h2.4v7.5H-955.4z"/>
			<path class="st1" d="M-948.3-608v2.2h-6.2v-9.7h2.4v7.5H-948.3z"/>
			<path class="st1" d="M-940.7-608v2.2h-6.7v-9.7h6.6v2.2h-4.2v1.6h3.6v2h-3.6v1.7H-940.7z"/>
			<path class="st1" d="M-935.3-607.9c0.4,0,0.9,0,1.3-0.1s0.9-0.2,1.3-0.3v2.1c-0.6,0.2-1.1,0.4-1.5,0.5c-0.5,0.1-0.9,0.1-1.4,0.1
				c-0.9,0-1.6-0.1-2.2-0.3c-0.5-0.2-1-0.5-1.3-1c-0.3-0.4-0.5-0.9-0.6-1.5c-0.1-0.6-0.2-1.3-0.2-2.2c0-1.7,0.4-3,1.1-3.8
				c0.7-0.8,1.9-1.2,3.6-1.2c0.5,0,0.9,0,1.3,0c0.4,0,0.7,0.1,1,0.1v2.1c-0.3,0-0.7,0-1.1,0c-0.4,0-0.8,0-1.2,0
				c-0.6,0-1,0.1-1.3,0.2s-0.5,0.3-0.6,0.6c-0.1,0.2-0.2,0.5-0.3,0.8s-0.1,0.8-0.1,1.3c0,0.5,0,0.9,0.1,1.2s0.1,0.6,0.2,0.8
				c0.1,0.3,0.3,0.5,0.6,0.6C-936.2-607.9-935.8-607.9-935.3-607.9z"/>
			<path class="st1" d="M-924.5-615.5v2.2h-2.6v7.5h-2.4v-7.5h-2.6v-2.2H-924.5z"/>
			<path class="st1" d="M-921.2-615.5v9.7h-2.4v-9.7H-921.2z"/>
			<path class="st1" d="M-910.9-610.7c0,1.8-0.4,3-1.1,3.8c-0.7,0.8-1.9,1.2-3.5,1.2c-1.7,0-2.9-0.4-3.5-1.1c-0.7-0.7-1-2-1-3.9
				c0-1.8,0.4-3,1.1-3.8c0.7-0.8,1.9-1.2,3.5-1.2c1.7,0,2.9,0.4,3.5,1.1C-911.2-613.8-910.9-612.5-910.9-610.7z M-917.3-608.6
				c0.1,0.3,0.3,0.4,0.6,0.5c0.3,0.1,0.7,0.2,1.2,0.2c0.6,0,1-0.1,1.2-0.2c0.3-0.1,0.5-0.3,0.6-0.5c0.1-0.2,0.2-0.5,0.2-0.8
				c0-0.3,0.1-0.8,0.1-1.3c0-0.5,0-1-0.1-1.3c0-0.3-0.1-0.6-0.2-0.8c-0.1-0.3-0.3-0.5-0.6-0.6s-0.7-0.2-1.3-0.2
				c-0.6,0-1,0.1-1.3,0.2c-0.3,0.1-0.5,0.3-0.6,0.6c-0.1,0.2-0.2,0.5-0.2,0.8c0,0.3-0.1,0.8-0.1,1.3c0,0.5,0,0.9,0.1,1.3
				C-917.5-609.1-917.4-608.8-917.3-608.6z"/>
			<path class="st1" d="M-901.3-615.5v9.7h-2.3l-3.8-5.6v5.6h-2.2v-9.7h2.3l3.9,5.8v-5.8H-901.3z"/>
		</g>
	</g>
</g>
<g>
	<polygon class="st0" points="-846.9,-624.6 -837.4,-630.6 -837.4,-620.5 	"/>
	<polygon class="st0" points="-742.3,-624.6 -751.8,-630.6 -751.8,-620.5 	"/>
	<path class="st1" d="M-757.4-620.5h-72.9c-3.9,0-7-3.1-7-7v-105.1h85.6v106.5C-751.8-623-754.3-620.5-757.4-620.5z"/>
	<path class="st2" d="M-759.2-633.4L-759.2-633.4c0,2.8-2.3,5.2-5.2,5.2h-60.5c-2.8,0-5.2-2.3-5.2-5.2l0,0c0-0.8-0.7-1.5-1.5-1.5
		h-5.9v10.5c0,2.1,1.7,3.9,3.9,3.9h77.9c2.1,0,3.9-1.7,3.9-3.9v-10.5h-5.9C-758.5-634.9-759.2-634.2-759.2-633.4z"/>
	
		<linearGradient id="SVGID_00000132781609139749116380000016419947023483481998_" gradientUnits="userSpaceOnUse" x1="-837.3934" y1="-737.7852" x2="-751.8001" y2="-737.7852">
		<stop  offset="0" style="stop-color:#F93DF9"/>
		<stop  offset="0.9674" style="stop-color:#FF14BF"/>
		<stop  offset="1" style="stop-color:#FF13BD"/>
	</linearGradient>
	<path style="fill:url(#SVGID_00000132781609139749116380000016419947023483481998_);" d="M-759.2-725.1L-759.2-725.1
		c0-2.8-2.3-5.2-5.2-5.2h-60.5c-2.8,0-5.2,2.3-5.2,5.2l0,0c0,0.8-0.7,1.5-1.5,1.5h-5.9v-24.6c0-2.1,1.7-3.9,3.9-3.9h77.9
		c2.1,0,3.9,1.7,3.9,3.9v24.6h-5.9C-758.5-723.6-759.2-724.2-759.2-725.1z"/>
	
		<linearGradient id="SVGID_00000058579000175499032010000006510808999377740990_" gradientUnits="userSpaceOnUse" x1="-170.9788" y1="11886.3818" x2="-170.9788" y2="11860.2383" gradientTransform="matrix(-1 0 0 -1 -965.5755 11261.833)">
		<stop  offset="0" style="stop-color:#F93DF9"/>
		<stop  offset="0.9674" style="stop-color:#FF14BF"/>
		<stop  offset="1" style="stop-color:#FF13BD"/>
	</linearGradient>
	<path style="fill:url(#SVGID_00000058579000175499032010000006510808999377740990_);" d="M-846.9-624.6h104.6v21.8
		c0,2.5-2,4.6-4.6,4.6h-95.4c-2.5,0-4.6-2-4.6-4.6V-624.6z"/>
	<g>
		<path class="st1" d="M-823.3-738.2v3.2h-2.5v-10h3.6c1.5,0,2.6,0.3,3.3,0.8c0.6,0.5,1,1.4,1,2.6c0,0.8-0.2,1.5-0.5,2
			c-0.3,0.5-0.9,0.9-1.6,1.1l2.4,3.5h-3l-2.1-3.2H-823.3z M-820.4-741.6c0-0.4-0.1-0.7-0.4-0.9s-0.7-0.3-1.4-0.3h-1.2v2.5h1.2
			c0.7,0,1.1-0.1,1.4-0.3S-820.4-741.1-820.4-741.6z"/>
		<path class="st1" d="M-807.5-740c0,1.8-0.4,3.1-1.1,3.9c-0.7,0.8-1.9,1.2-3.6,1.2c-1.7,0-2.9-0.4-3.6-1.1c-0.7-0.8-1.1-2.1-1.1-4
			c0-1.8,0.4-3.1,1.1-3.9c0.7-0.8,1.9-1.2,3.6-1.2c1.7,0,2.9,0.4,3.6,1.1S-807.5-741.9-807.5-740z M-814.1-737.9
			c0.1,0.3,0.3,0.5,0.6,0.6c0.3,0.1,0.7,0.2,1.3,0.2s1-0.1,1.3-0.2c0.3-0.1,0.5-0.3,0.6-0.6c0.1-0.2,0.2-0.5,0.2-0.8
			s0.1-0.8,0.1-1.3c0-0.5,0-1-0.1-1.3c0-0.3-0.1-0.6-0.2-0.8c-0.1-0.3-0.3-0.5-0.6-0.6c-0.3-0.1-0.7-0.2-1.3-0.2s-1,0.1-1.3,0.2
			c-0.3,0.1-0.5,0.3-0.6,0.6c-0.1,0.2-0.2,0.5-0.2,0.8c0,0.3-0.1,0.8-0.1,1.3c0,0.5,0,1,0.1,1.3S-814.2-738.1-814.1-737.9z"/>
		<path class="st1" d="M-800.2-745h2.5l-3.5,6.4v3.6h-2.5v-3.6l-3.6-6.4h2.8l2,4.2L-800.2-745z"/>
		<path class="st1" d="M-795.1-735h-2.6l3.7-10h2.6l3.6,10h-2.6l-0.5-1.7h-3.6L-795.1-735z M-792.7-742.5c-0.1,0.3-0.2,0.6-0.3,0.9
			c-0.1,0.3-0.3,0.9-0.5,1.6l-0.4,1.3h2.4l-0.4-1.3c-0.1-0.4-0.3-0.8-0.4-1.3C-792.5-741.7-792.6-742.1-792.7-742.5z"/>
		<path class="st1" d="M-780.7-737.3v2.3h-6.4v-10h2.5v7.7H-780.7z"/>
		<path class="st1" d="M-772.4-745v2.2h-2.7v7.8h-2.5v-7.8h-2.7v-2.2H-772.4z"/>
		<path class="st1" d="M-765.2-745h2.5l-3.5,6.4v3.6h-2.5v-3.6l-3.6-6.4h2.8l2,4.2L-765.2-745z"/>
	</g>
	<g>
		<g>
			<path class="st5" d="M-814.7-684.2l-2.2-0.5c-0.9-0.2-1.4-0.5-1.8-0.9s-0.5-1-0.5-1.8c0-1.2,0.3-2.1,1-2.7c0.7-0.6,1.7-0.9,3-0.9
				c0.6,0,1.1,0,1.5,0.1c0.4,0,0.9,0.1,1.2,0.2v2.4c-0.9-0.1-1.5-0.2-1.8-0.3c-0.3,0-0.7,0-1,0c-0.5,0-0.8,0.1-1,0.2
				c-0.2,0.2-0.3,0.4-0.3,0.8c0,0.2,0,0.3,0.1,0.4c0.1,0.1,0.2,0.2,0.4,0.2l2,0.5c0.6,0.1,1,0.3,1.3,0.4c0.3,0.1,0.5,0.3,0.6,0.5
				c0.2,0.2,0.3,0.5,0.4,0.8c0.1,0.3,0.1,0.8,0.1,1.2c0,1.2-0.3,2.1-1,2.7c-0.7,0.6-1.7,0.8-3.1,0.8c-0.7,0-1.4,0-2-0.1
				c-0.6-0.1-1.1-0.2-1.5-0.3v-2.5c0.5,0.1,1,0.3,1.6,0.3c0.6,0.1,1.2,0.1,1.9,0.1c0.5,0,0.8-0.1,1-0.2c0.2-0.1,0.3-0.4,0.3-0.7
				c0-0.2,0-0.4-0.1-0.5C-814.4-684.1-814.5-684.2-814.7-684.2z"/>
			<path class="st5" d="M-799.7-690.9v10.7h-2.5v-6.4l-1.8,4.4h-2.1l-1.8-4.4v6.4h-2.5v-10.7h3.2l2.2,5.4l2.2-5.4H-799.7z"/>
			<path class="st5" d="M-796.2-680.3h-2.8l3.9-10.7h2.7l3.8,10.7h-2.8l-0.6-1.8h-3.9L-796.2-680.3z M-793.7-688.3
				c-0.1,0.3-0.2,0.7-0.3,1s-0.3,0.9-0.5,1.7l-0.4,1.4h2.6l-0.4-1.4c-0.1-0.4-0.3-0.9-0.4-1.4C-793.4-687.4-793.6-687.9-793.7-688.3
				z"/>
			<path class="st5" d="M-785-683.7v3.4h-2.6v-10.7h3.9c1.6,0,2.8,0.3,3.5,0.8c0.7,0.6,1,1.5,1,2.8c0,0.9-0.2,1.6-0.6,2.1
				c-0.4,0.6-0.9,1-1.7,1.2l2.6,3.7h-3.2l-2.2-3.4H-785z M-781.8-687.3c0-0.5-0.1-0.8-0.4-1s-0.8-0.3-1.5-0.3h-1.3v2.7h1.3
				c0.7,0,1.2-0.1,1.5-0.3C-782-686.4-781.8-686.8-781.8-687.3z"/>
			<path class="st5" d="M-769.9-690.9v2.4h-2.9v8.3h-2.6v-8.3h-2.9v-2.4H-769.9z"/>
			<path class="st5" d="M-827.7-668.1c0.5,0,0.9,0,1.5-0.1c0.5-0.1,1-0.2,1.4-0.4v2.3c-0.6,0.2-1.2,0.4-1.7,0.5
				c-0.5,0.1-1,0.1-1.6,0.1c-1,0-1.8-0.1-2.4-0.3c-0.6-0.2-1.1-0.6-1.4-1.1c-0.3-0.4-0.5-1-0.7-1.7c-0.1-0.7-0.2-1.5-0.2-2.4
				c0-1.9,0.4-3.3,1.2-4.2c0.8-0.9,2.1-1.3,3.9-1.3c0.5,0,1,0,1.4,0c0.4,0,0.8,0.1,1.1,0.1v2.3c-0.4,0-0.8,0-1.2-0.1
				c-0.4,0-0.8,0-1.3,0c-0.6,0-1.1,0.1-1.4,0.2s-0.5,0.3-0.7,0.6c-0.1,0.2-0.2,0.5-0.3,0.9c-0.1,0.4-0.1,0.8-0.1,1.4
				c0,0.5,0,1,0.1,1.3c0.1,0.4,0.1,0.7,0.2,0.9c0.1,0.3,0.4,0.5,0.6,0.6S-828.3-668.1-827.7-668.1z"/>
			<path class="st5" d="M-814-671.1c0,1.9-0.4,3.3-1.2,4.2s-2.1,1.3-3.8,1.3c-1.8,0-3.1-0.4-3.9-1.2c-0.7-0.8-1.1-2.2-1.1-4.3
				c0-1.9,0.4-3.3,1.2-4.2s2.1-1.3,3.8-1.3c1.8,0,3.1,0.4,3.9,1.2C-814.4-674.6-814-673.1-814-671.1z M-821.1-668.8
				c0.1,0.3,0.4,0.5,0.7,0.6c0.3,0.1,0.7,0.2,1.4,0.2s1.1-0.1,1.4-0.2c0.3-0.1,0.5-0.3,0.7-0.6c0.1-0.2,0.2-0.5,0.2-0.9
				c0.1-0.4,0.1-0.8,0.1-1.4c0-0.6,0-1.1-0.1-1.4c-0.1-0.4-0.1-0.7-0.2-0.9c-0.1-0.3-0.3-0.5-0.6-0.6c-0.3-0.1-0.8-0.2-1.4-0.2
				c-0.6,0-1.1,0.1-1.4,0.2c-0.3,0.1-0.5,0.3-0.6,0.6c-0.1,0.2-0.2,0.5-0.2,0.9c-0.1,0.4-0.1,0.8-0.1,1.4c0,0.6,0,1,0.1,1.4
				S-821.2-669.1-821.1-668.8z"/>
			<path class="st5" d="M-803.6-676.4v10.7h-2.5l-4.2-6.2v6.2h-2.5v-10.7h2.5l4.2,6.4v-6.4H-803.6z"/>
			<path class="st5" d="M-794.1-676.4v2.4h-2.9v8.3h-2.6v-8.3h-2.9v-2.4H-794.1z"/>
			<path class="st5" d="M-790.4-669.2v3.4h-2.6v-10.7h3.9c1.6,0,2.8,0.3,3.5,0.8c0.7,0.6,1,1.5,1,2.8c0,0.9-0.2,1.6-0.6,2.1
				c-0.4,0.6-0.9,1-1.7,1.2l2.6,3.7h-3.2l-2.2-3.4H-790.4z M-787.3-672.8c0-0.5-0.1-0.8-0.4-1s-0.8-0.3-1.5-0.3h-1.3v2.7h1.3
				c0.7,0,1.2-0.1,1.5-0.3C-787.4-671.9-787.3-672.3-787.3-672.8z"/>
			<path class="st5" d="M-781.3-665.8h-2.8l3.9-10.7h2.7l3.8,10.7h-2.8l-0.6-1.8h-3.9L-781.3-665.8z M-778.8-673.8
				c-0.1,0.3-0.2,0.7-0.3,1s-0.3,0.9-0.5,1.7l-0.4,1.4h2.6l-0.4-1.4c-0.1-0.4-0.3-0.9-0.4-1.4C-778.6-672.9-778.7-673.4-778.8-673.8
				z"/>
			<path class="st5" d="M-768.1-668.1c0.5,0,0.9,0,1.5-0.1c0.5-0.1,1-0.2,1.4-0.4v2.3c-0.6,0.2-1.2,0.4-1.7,0.5
				c-0.5,0.1-1,0.1-1.6,0.1c-1,0-1.8-0.1-2.4-0.3c-0.6-0.2-1.1-0.6-1.4-1.1c-0.3-0.4-0.5-1-0.7-1.7c-0.1-0.7-0.2-1.5-0.2-2.4
				c0-1.9,0.4-3.3,1.2-4.2c0.8-0.9,2.1-1.3,3.9-1.3c0.5,0,1,0,1.4,0c0.4,0,0.8,0.1,1.1,0.1v2.3c-0.4,0-0.8,0-1.2-0.1
				c-0.4,0-0.8,0-1.3,0c-0.6,0-1.1,0.1-1.4,0.2s-0.5,0.3-0.7,0.6c-0.1,0.2-0.2,0.5-0.3,0.9c-0.1,0.4-0.1,0.8-0.1,1.4
				c0,0.5,0,1,0.1,1.3c0.1,0.4,0.1,0.7,0.2,0.9c0.1,0.3,0.4,0.5,0.6,0.6S-768.7-668.1-768.1-668.1z"/>
			<path class="st5" d="M-756.3-676.4v2.4h-2.9v8.3h-2.6v-8.3h-2.9v-2.4H-756.3z"/>
		</g>
	</g>
	<g>
		<g>
			<path class="st1" d="M-822.6-609.4l-2-0.5c-0.8-0.2-1.3-0.5-1.6-0.9c-0.3-0.4-0.4-0.9-0.4-1.6c0-1.1,0.3-2,0.9-2.5
				c0.6-0.5,1.5-0.8,2.8-0.8c0.5,0,1,0,1.4,0.1s0.8,0.1,1.1,0.2v2.2c-0.8-0.1-1.3-0.2-1.6-0.2c-0.3,0-0.6,0-0.9,0
				c-0.4,0-0.7,0.1-0.9,0.2c-0.2,0.1-0.3,0.4-0.3,0.7c0,0.2,0,0.3,0.1,0.4c0.1,0.1,0.2,0.2,0.4,0.2l1.9,0.4c0.5,0.1,0.9,0.2,1.2,0.4
				c0.2,0.1,0.4,0.3,0.6,0.5c0.2,0.2,0.3,0.4,0.4,0.8c0.1,0.3,0.1,0.7,0.1,1.1c0,1.1-0.3,1.9-0.9,2.4c-0.6,0.5-1.5,0.8-2.8,0.8
				c-0.6,0-1.2,0-1.8-0.1c-0.6-0.1-1-0.2-1.3-0.3v-2.3c0.4,0.1,0.9,0.2,1.5,0.3s1.1,0.1,1.7,0.1c0.5,0,0.8-0.1,0.9-0.2
				c0.2-0.1,0.3-0.3,0.3-0.7c0-0.2,0-0.4-0.1-0.5C-822.3-609.3-822.4-609.4-822.6-609.4z"/>
			<path class="st1" d="M-811.6-615.5v2.2h-2.6v7.5h-2.4v-7.5h-2.6v-2.2H-811.6z"/>
			<path class="st1" d="M-808.9-605.8h-2.5l3.6-9.7h2.5l3.5,9.7h-2.5l-0.5-1.6h-3.5L-808.9-605.8z M-806.7-613.1
				c-0.1,0.3-0.2,0.6-0.3,0.9s-0.3,0.9-0.5,1.6l-0.4,1.3h2.3l-0.4-1.3c-0.1-0.4-0.3-0.8-0.4-1.2S-806.5-612.7-806.7-613.1z"/>
			<path class="st1" d="M-798.7-608.9v3.1h-2.4v-9.7h3.5c1.5,0,2.6,0.3,3.2,0.8c0.6,0.5,0.9,1.3,0.9,2.5c0,0.8-0.2,1.4-0.5,1.9
				c-0.3,0.5-0.8,0.9-1.5,1.1l2.4,3.4h-2.9l-2-3.1H-798.7z M-795.9-612.2c0-0.4-0.1-0.7-0.4-0.9c-0.2-0.2-0.7-0.2-1.3-0.2h-1.1v2.5
				h1.1c0.6,0,1.1-0.1,1.3-0.3C-796-611.4-795.9-611.7-795.9-612.2z"/>
			<path class="st1" d="M-785-615.5v2.2h-2.6v7.5h-2.4v-7.5h-2.6v-2.2H-785z"/>
			<path class="st1" d="M-781.7-615.5v9.7h-2.4v-9.7H-781.7z"/>
			<path class="st1" d="M-771.9-615.5v9.7h-2.3l-3.8-5.6v5.6h-2.2v-9.7h2.3l3.9,5.8v-5.8H-771.9z"/>
			<path class="st1" d="M-764.9-609.4h-1.7v-1.9h3.9v5.1c-0.3,0.1-0.8,0.3-1.5,0.4c-0.7,0.1-1.4,0.2-2,0.2c-1.7,0-2.9-0.4-3.5-1.2
				c-0.7-0.8-1-2.1-1-3.9c0-1.7,0.4-3,1.1-3.8c0.8-0.8,2-1.2,3.7-1.2c0.6,0,1.2,0,1.6,0s0.8,0.1,1.1,0.1v2.1c-0.3,0-0.7-0.1-1.2-0.1
				c-0.5,0-1,0-1.5,0c-0.6,0-1,0.1-1.3,0.2c-0.3,0.1-0.5,0.3-0.6,0.5c-0.1,0.2-0.2,0.5-0.3,0.8s-0.1,0.8-0.1,1.3
				c0,0.5,0,0.9,0.1,1.3c0.1,0.3,0.1,0.6,0.2,0.8c0.1,0.3,0.3,0.5,0.6,0.6c0.3,0.1,0.7,0.2,1.2,0.2c0.2,0,0.4,0,0.6,0
				c0.2,0,0.4,0,0.6-0.1V-609.4z"/>
		</g>
	</g>
</g>
<g>
</g>
<g>
</g>
<g>
</g>
<g>
</g>
<g>
</g>
<g>
</g>
<g>
</g>
<g>
</g>
<g>
</g>
<g>
</g>
<g>
</g>
<g>
</g>
<g>
</g>
<g>
</g>
<g>
</g>
</svg>
