<svg id="Capa_1" data-name="Capa 1" xmlns="http://www.w3.org/2000/svg" xmlns:xlink="http://www.w3.org/1999/xlink" viewBox="0 0 166 245"><defs><style>.cls-1{fill:#c6099a;}.cls-2,.cls-6,.cls-8{fill:#fff;}.cls-3{fill:#e9ecec;}.cls-4{fill:url(#Degradado_sin_nombre_169);}.cls-5{fill:url(#Degradado_sin_nombre_169-2);}.cls-6{font-size:25.27px;}.cls-6,.cls-7,.cls-8{font-family:Blinker-Bold, Blinker;font-weight:700;}.cls-7{font-size:27px;fill:#010628;}.cls-8{font-size:30px;}.cls-9{font-family:Blinker-ExtraLight, Blinker;font-weight:200;}</style><linearGradient id="Degradado_sin_nombre_169" x1="15.1" y1="23.05" x2="150.9" y2="23.05" gradientUnits="userSpaceOnUse"><stop offset="0" stop-color="#f93df9"/><stop offset="0.97" stop-color="#ff14bf"/><stop offset="1" stop-color="#ff13bd"/></linearGradient><linearGradient id="Degradado_sin_nombre_169-2" x1="4217.51" y1="334.32" x2="4217.51" y2="292.84" gradientTransform="translate(-4134.51 -89.87)" xlink:href="#Degradado_sin_nombre_169"/></defs><polygon class="cls-1" points="0.06 202.64 15.1 193.12 15.1 209.13 0.06 202.64"/><polygon class="cls-1" points="165.94 202.64 150.9 193.12 150.9 209.13 165.94 202.64"/><path class="cls-2" d="M15.1,31.27H150.9a0,0,0,0,1,0,0V200.21a8.92,8.92,0,0,1-8.92,8.92H26.25A11.15,11.15,0,0,1,15.1,198V31.27A0,0,0,0,1,15.1,31.27Z"/><path class="cls-3" d="M139.19,188.69h0a8.17,8.17,0,0,1-8.17,8.18H35a8.17,8.17,0,0,1-8.17-8.18h0a2.36,2.36,0,0,0-2.36-2.35H15.1V203a6.13,6.13,0,0,0,6.13,6.13H144.77A6.13,6.13,0,0,0,150.9,203V186.34h-9.35A2.36,2.36,0,0,0,139.19,188.69Z"/><path class="cls-4" d="M139.19,43.24h0A8.17,8.17,0,0,0,131,35.07H35a8.17,8.17,0,0,0-8.17,8.17h0a2.36,2.36,0,0,1-2.36,2.36H15.1v-39A6.14,6.14,0,0,1,21.23.49H144.77a6.14,6.14,0,0,1,6.13,6.14v39h-9.35A2.36,2.36,0,0,1,139.19,43.24Z"/><path class="cls-5" d="M7.32,202.64H158.68a7.26,7.26,0,0,1,7.26,7.26v34.61a0,0,0,0,1,0,0H.06a0,0,0,0,1,0,0V209.9A7.26,7.26,0,0,1,7.32,202.64Z" transform="translate(166 447.15) rotate(180)"/><text class="cls-6" transform="translate(42.22 27.49)">UTILITY</text><text class="cls-7" transform="translate(43.45 117.31)">SMART<tspan x="-21.67" y="23">CONTRACT</tspan></text><text class="cls-8" transform="translate(14.32 231.5) scale(0.58)">STARTING <tspan class="cls-9" x="130.11" y="0">BRANDS</tspan></text></svg>